<svg xmlns="http://www.w3.org/2000/svg" xmlns:xlink="http://www.w3.org/1999/xlink" viewBox="0 0 397.65 509.66"><defs><style>.cls-1{fill:url(#linear-gradient);}.cls-2{fill:none;stroke:#000;stroke-miterlimit:10;stroke-width:8px;opacity:0.04;}.cls-3{fill:url(#linear-gradient-2);}.cls-4{fill:url(#linear-gradient-3);}.cls-5{fill:url(#linear-gradient-4);}.cls-6{fill:url(#linear-gradient-5);}.cls-7{fill:url(#linear-gradient-6);}.cls-8{fill:url(#linear-gradient-7);}.cls-9{fill:url(#linear-gradient-8);}.cls-10{fill:url(#linear-gradient-9);}.cls-11{fill:url(#linear-gradient-10);}.cls-12{fill:url(#linear-gradient-11);}.cls-13{fill:url(#linear-gradient-12);}.cls-14{fill:url(#linear-gradient-13);}.cls-15{fill:url(#linear-gradient-14);}.cls-16{fill:url(#linear-gradient-15);}.cls-17{fill:url(#linear-gradient-16);}.cls-18{fill:url(#linear-gradient-17);}.cls-19{fill:url(#linear-gradient-18);}.cls-20{fill:url(#linear-gradient-19);}.cls-21{fill:url(#linear-gradient-20);}.cls-22{fill:url(#linear-gradient-21);}.cls-23{fill:url(#linear-gradient-22);}.cls-24{fill:url(#linear-gradient-23);}.cls-25{fill:url(#linear-gradient-24);}.cls-26{fill:url(#linear-gradient-25);}.cls-27{fill:url(#linear-gradient-26);}.cls-28{fill:url(#linear-gradient-27);}.cls-29{fill:url(#linear-gradient-28);}.cls-30{fill:url(#linear-gradient-29);}.cls-31{fill:url(#linear-gradient-30);}.cls-32{fill:#d8b775;}.cls-33{fill:#fff;}.cls-34{opacity:0.07;}.cls-35{fill:#d3d3d3;}.cls-36{fill:#ffd368;}</style><linearGradient id="linear-gradient" x1="119.93" y1="497.6" x2="119.93" y2="167.77" gradientUnits="userSpaceOnUse"><stop offset="0" stop-color="#103d04"/><stop offset="1" stop-color="#3c701e"/></linearGradient><linearGradient id="linear-gradient-2" x1="117.21" y1="468.12" x2="117.21" y2="205.42" gradientUnits="userSpaceOnUse"><stop offset="0" stop-color="#265711"/><stop offset="1" stop-color="#528a2a"/></linearGradient><linearGradient id="linear-gradient-3" x1="129.27" y1="497.17" x2="129.27" y2="139.18" gradientUnits="userSpaceOnUse"><stop offset="0" stop-color="#3c701e"/><stop offset="0.04" stop-color="#103d04"/><stop offset="1" stop-color="#68a337"/></linearGradient><linearGradient id="linear-gradient-4" x1="274.01" y1="497.29" x2="274.01" y2="88.47" gradientUnits="userSpaceOnUse"><stop offset="0.24" stop-color="#103d04"/><stop offset="1" stop-color="#3c701e"/></linearGradient><linearGradient id="linear-gradient-5" x1="135.3" y1="438.97" x2="135.3" y2="88.26" gradientUnits="userSpaceOnUse"><stop offset="0" stop-color="#3c701e"/><stop offset="1" stop-color="#68a337"/></linearGradient><linearGradient id="linear-gradient-6" x1="153.72" y1="304.5" x2="153.72" y2="55.15" gradientUnits="userSpaceOnUse"><stop offset="0" stop-color="#103d04"/><stop offset="0.96" stop-color="#528a2a"/><stop offset="1" stop-color="#3c701e"/></linearGradient><linearGradient id="linear-gradient-7" x1="157.81" y1="499.78" x2="157.81" y2="415" gradientUnits="userSpaceOnUse"><stop offset="0" stop-color="#265711"/><stop offset="1" stop-color="#265711"/></linearGradient><linearGradient id="linear-gradient-8" x1="285.99" y1="336.5" x2="285.99" y2="116.24" gradientUnits="userSpaceOnUse"><stop offset="0" stop-color="#103d04"/><stop offset="1" stop-color="#68a337"/></linearGradient><linearGradient id="linear-gradient-9" x1="296.38" y1="387.69" x2="296.38" y2="164.22" xlink:href="#linear-gradient-2"/><linearGradient id="linear-gradient-10" x1="290.56" y1="470.46" x2="290.56" y2="200.96" xlink:href="#linear-gradient"/><linearGradient id="linear-gradient-11" x1="299.02" y1="498.38" x2="299.02" y2="266.01" xlink:href="#linear-gradient"/><linearGradient id="linear-gradient-12" x1="303.51" y1="491.17" x2="303.51" y2="314.8" xlink:href="#linear-gradient"/><linearGradient id="linear-gradient-13" x1="124.79" y1="494" x2="124.79" y2="264.74" xlink:href="#linear-gradient"/><linearGradient id="linear-gradient-14" x1="119.33" y1="495.5" x2="119.33" y2="287.4" gradientUnits="userSpaceOnUse"><stop offset="0" stop-color="#3c701e"/><stop offset="1" stop-color="#528a2a"/></linearGradient><linearGradient id="linear-gradient-15" x1="269.43" y1="493.95" x2="269.43" y2="416.29" gradientUnits="userSpaceOnUse"><stop offset="0" stop-color="#103d04"/><stop offset="1" stop-color="#265711"/></linearGradient><linearGradient id="linear-gradient-16" x1="127.2" y1="497.6" x2="127.2" y2="347.66" xlink:href="#linear-gradient"/><linearGradient id="linear-gradient-17" x1="136.73" y1="499.32" x2="136.73" y2="386.19" xlink:href="#linear-gradient-2"/><linearGradient id="linear-gradient-18" x1="209.89" y1="497.29" x2="209.89" y2="19.09" xlink:href="#linear-gradient-4"/><linearGradient id="linear-gradient-19" x1="166.6" y1="497.29" x2="166.6" y2="34.47" xlink:href="#linear-gradient-4"/><linearGradient id="linear-gradient-20" x1="226.97" y1="432.29" x2="226.97" y2="24.86" gradientUnits="userSpaceOnUse"><stop offset="0.46" stop-color="#103d04"/><stop offset="1" stop-color="#68a337"/></linearGradient><linearGradient id="linear-gradient-21" x1="293.1" y1="489.96" x2="293.1" y2="375.24" xlink:href="#linear-gradient-2"/><linearGradient id="linear-gradient-22" x1="238.71" y1="497.29" x2="238.71" y2="42.47" xlink:href="#linear-gradient-4"/><linearGradient id="linear-gradient-23" x1="190.28" y1="421.5" x2="190.28" y2="12.62" gradientUnits="userSpaceOnUse"><stop offset="0" stop-color="#265711"/><stop offset="1" stop-color="#68a337"/></linearGradient><linearGradient id="linear-gradient-24" x1="257.29" y1="498.84" x2="257.29" y2="57.53" xlink:href="#linear-gradient-5"/><linearGradient id="linear-gradient-25" x1="116.07" y1="495.5" x2="116.07" y2="239.33" xlink:href="#linear-gradient-5"/><linearGradient id="linear-gradient-26" x1="139.37" y1="496" x2="139.37" y2="121.76" xlink:href="#linear-gradient"/><linearGradient id="linear-gradient-27" x1="297.57" y1="463.73" x2="297.57" y2="235.16" xlink:href="#linear-gradient-2"/><linearGradient id="linear-gradient-28" x1="285.2" y1="496.5" x2="285.2" y2="142.44" xlink:href="#linear-gradient-5"/><linearGradient id="linear-gradient-29" x1="134.78" y1="494" x2="134.78" y2="318.1" xlink:href="#linear-gradient-23"/><linearGradient id="linear-gradient-30" x1="295.29" y1="496.5" x2="295.29" y2="295.5" xlink:href="#linear-gradient-5"/></defs><title>pineapple</title><g id="Layer_2" data-name="Layer 2"><g id="pineapple"><path class="cls-1" d="M202.65,496c-1.18-7.76-3-15.24-4.87-22.66-1-3.7-2-7.38-3.06-11l-3.29-10.93c-4.56-14.5-9.62-28.74-15-42.76s-11.2-27.79-17.39-41.27-12.79-26.68-19.89-39.46a433.26,433.26,0,0,0-22.79-37,316.75,316.75,0,0,0-26.29-33.39c-9.37-10.4-18.44-20.78-27.77-31.7-4.68-5.45-9.42-11.06-14.37-17-2.45-3-5-6-7.56-9.21-1.32-1.53-2.59-3.24-3.92-4.88s-2.67-3.36-4-5.28l.37-.92a60.91,60.91,0,0,1,6.66-.84c2.2-.13,4.38-.16,6.56-.1,1.1,0,2.2,0,3.27.14s2.16.17,3.24.28c2.17.19,4.28.55,6.41.93a103.26,103.26,0,0,1,24.44,7.82c1.92.91,3.85,1.84,5.73,2.84s3.7,2.08,5.56,3.13,3.6,2.26,5.36,3.44,3.47,2.42,5.16,3.69a136.57,136.57,0,0,1,18.63,17,276.08,276.08,0,0,1,29.78,39.66,332,332,0,0,1,22.63,43.17,375.91,375.91,0,0,1,16.31,45.27A386.79,386.79,0,0,1,203,401.51a335.86,335.86,0,0,1,4.29,47.34l0,5.94c0,2,0,4-.12,5.95-.1,4-.32,7.93-.66,11.87s-.79,7.9-1.41,11.81A90.85,90.85,0,0,1,202.65,496Z"/><ellipse class="cls-2" cx="198.83" cy="254.83" rx="194.83" ry="250.83"/><path class="cls-3" d="M213.9,466.52l-5.53-20.59-2.86-10.17c-.93-3.38-2-6.72-3-10.08-4.13-13.34-8.65-26.41-13.94-39-10.46-25.23-23.7-48.71-40.39-68.93A218.5,218.5,0,0,0,120.8,290,230.8,230.8,0,0,0,89,267.56c-2.85-1.59-5.71-3.15-8.54-4.77s-5.81-3-8.65-4.64-5.77-3.17-8.65-4.84-5.69-3.51-8.66-5.12-5.82-3.54-8.71-5.49S39.91,239,37,236.9c-1.48-1.05-2.95-2.11-4.42-3.24s-3-2.15-4.5-3.26a88.84,88.84,0,0,1-8.95-7.66l.11-.48a74.79,74.79,0,0,1,11.58-2.63c1.92-.26,3.85-.54,5.78-.74s3.8-.17,5.71-.2c3.8,0,7.61,0,11.39.34s7.47,1,11.19,1.65a90,90,0,0,1,11,2.74c1.81.53,3.6,1.13,5.4,1.7.89.3,1.79.6,2.65,1s1.76.71,2.62,1.08c1.74.73,3.48,1.48,5.2,2.27s3.45,1.55,5.12,2.44c3.32,1.83,6.61,3.71,9.91,5.57a220.8,220.8,0,0,1,36.57,27.2,207.59,207.59,0,0,1,29.91,34.26A219.19,219.19,0,0,1,195,338.27c1.38,3.46,2.81,6.89,4.13,10.36s2.5,7,3.62,10.49c2.19,7.05,4.16,14.13,5.79,21.27a289.46,289.46,0,0,1,5.91,86.09Z"/><path class="cls-4" d="M217.9,495.52c-2.21-8.44-4.18-16.9-6-25.35-1-4.23-1.89-8.45-2.77-12.68s-1.84-8.43-2.68-12.64l-5.31-25.17-2.72-12.49-2.8-12.41c-3.79-16.48-7.91-32.72-12.74-48.47a350.44,350.44,0,0,0-17.11-45.46,238.33,238.33,0,0,0-23.6-40.46A201,201,0,0,0,111,226.68l-2.14-1.92L106.62,223l-4.52-3.57-2.26-1.8c-.79-.55-1.57-1.11-2.35-1.69-1.56-1.13-3.1-2.31-4.62-3.51l-2.26-1.83c-.78-.59-1.58-1.15-2.35-1.75l-2.35-1.77-2.3-1.84c-3-2.57-6.25-4.87-9.34-7.5-1.58-1.26-3.07-2.68-4.66-4s-3.19-2.61-4.78-4-3.15-2.8-4.71-4.27c-.78-.75-1.6-1.43-2.41-2.14s-1.6-1.45-2.41-2.17c-1.61-1.49-3.21-3-4.8-4.62-.79-.8-1.6-1.6-2.39-2.44l-2.44-2.41c-1.61-1.67-3.24-3.35-4.84-5.17s-3.21-3.69-4.76-5.82l.16-.48a62,62,0,0,1,7.35-1.46c2.44-.38,4.84-.6,7.27-.83,1.2-.08,2.41-.18,3.61-.21s2.37,0,3.55,0q3.56.08,7.09.33c2.34.19,4.71.34,7,.71s4.6.81,6.9,1.28,4.57,1,6.84,1.56c1.15.24,2.23.67,3.35,1s2.23.71,3.33,1.1a98.76,98.76,0,0,1,13,5.24l3.16,1.55,3.13,1.62c1,.54,2.09,1.07,3.1,1.67l3,1.87c2,1.27,4,2.56,5.91,3.89l2.91,2,2.78,2.2,5.55,4.44,2.76,2.22,2.65,2.38a214.15,214.15,0,0,1,37.31,42.83,235.47,235.47,0,0,1,25,50.06,301,301,0,0,1,13.64,52.67,434.58,434.58,0,0,1,5.46,52.81c.37,8.76.61,17.49.57,26.21,0,4.35,0,8.71-.09,13.05l-.37,13c-.14,4.34-.36,8.68-.58,13s-.48,8.65-.78,13c-.58,8.66-1.28,17.31-2.23,26Z"/><path class="cls-5" d="M221.9,495.52c-2.21-8.62-3.88-17.37-5.28-26.17-.7-4.39-1.35-8.8-1.88-13.22s-1.08-8.85-1.5-13.28c-1.77-17.74-2.48-35.58-2.54-53.46a559.49,559.49,0,0,1,10.21-107.16c1.72-8.89,3.74-17.73,6-26.55s4.77-17.59,7.6-26.29a370.58,370.58,0,0,1,20.64-51.27,214.76,214.76,0,0,1,13.76-24.39,138.14,138.14,0,0,1,18-21.78,116.47,116.47,0,0,1,22.71-17.4c2.12-1.17,4.22-2.34,6.39-3.39s4.42-2,6.68-2.92,4.61-1.65,7-2.34a65.52,65.52,0,0,1,7.34-1.59l.32.38c-.83,2.46-1.77,4.69-2.72,6.88s-1.86,4.36-2.8,6.47-1.84,4.2-2.81,6.2-1.84,4.06-2.79,6c-3.72,7.91-7.43,15.44-11.16,22.84s-7.52,14.61-11.4,21.8-8,14.27-11.67,21.66c-14.86,29.46-26.11,61.35-35.22,94.1s-16,66.52-21.66,100.69c-2.87,17.09-5.22,34.32-7.4,51.66l-1.53,13-1.39,13.08c-.87,8.74-1.65,17.51-2.36,26.37Z"/><path class="cls-6" d="M201.9,438.51c-1.64-8-2.94-16.11-4.15-24.16l-.92-6-.85-6-1.71-12c-2.3-16-4.44-31.89-7.11-47.57-5.18-31.35-11.74-62-21.83-90.76a283.09,283.09,0,0,0-18-41.11,202.33,202.33,0,0,0-24.68-35.89c-4.71-5.45-9.81-10.46-14.81-15.61l-15.35-15.6-2-2c-.67-.66-1.29-1.39-2-2-1.35-1.33-2.68-2.69-4-4.11s-2.72-2.74-4.08-4.18l-4.15-4.3c-1.36-1.51-2.8-2.92-4.21-4.45L67.77,118l-2.16-2.42c-.37-.4-.72-.84-1.08-1.26l-1.1-1.23c-1.46-1.69-2.94-3.4-4.36-5.36l.17-.46A65.1,65.1,0,0,1,73,106.06c1.13,0,2.27,0,3.39.07s2.24.15,3.35.26c2.23.21,4.47.44,6.66.85a98,98,0,0,1,25.49,7.92,110.71,110.71,0,0,1,22.75,14.17,141.18,141.18,0,0,1,19.05,18.9,203.32,203.32,0,0,1,16,21.4,220.48,220.48,0,0,1,13,23,259.09,259.09,0,0,1,17.82,48.64c8.63,33.09,11.45,66.65,11.09,99.59q-.39,24.74-2.82,49.1c-1.62,16.25-3.74,32.35-6.29,48.52Z"/><path class="cls-7" d="M206.9,304.5c-3.44-11-7-21.45-10.94-31.62s-8.13-20-12.54-29.78c-8.85-19.44-18.53-38.3-28.78-56.8q-7.68-13.87-15.81-27.45c-2.71-4.53-5.49-9-8.15-13.55s-5.27-9.13-7.81-13.78c-5.1-9.28-9.94-18.79-14.59-28.73-1.15-2.49-2.29-5-3.44-7.56-.58-1.26-1.13-2.57-1.69-3.87s-1.14-2.59-1.69-3.91c-1.09-2.68-2.22-5.33-3.3-8.12S95.94,73.77,95,70.69l.33-.38a77,77,0,0,1,17.4,6.27c1.36.67,2.7,1.36,4,2.07s2.62,1.49,3.9,2.27c2.61,1.51,5,3.19,7.5,4.9a145.75,145.75,0,0,1,26,23.76,174,174,0,0,1,10.68,13.76c3.32,4.75,6.37,9.68,9.26,14.69a313.64,313.64,0,0,1,15.78,30.88c9.31,21.15,16.43,43.4,20.06,66.4a197.75,197.75,0,0,1,2.53,34.8c0,2.9-.28,5.83-.41,8.72-.09,1.45-.27,2.9-.43,4.35s-.31,2.89-.5,4.32c-.41,2.88-.94,5.75-1.5,8.58-.27,1.42-.66,2.84-1,4.24s-.75,2.8-1.16,4.18Z"/><path class="cls-8" d="M207.15,497.5c-2.82-5.36-5.43-10.68-8.16-15.85s-5.54-10.17-8.52-14.93c-6-9.48-12.82-18-20.8-23.65A43.36,43.36,0,0,0,157,436.79l-1.67-.52-1.73-.37c-.58-.11-1.14-.28-1.73-.37l-1.77-.25c-1.16-.21-2.38-.27-3.58-.37-.61,0-1.2-.17-1.81-.16s-1.24-.05-1.85-.08c-4.95-.27-10.15-.28-15.74-.36-1.4,0-2.82,0-4.27,0-.74-.06-1.46,0-2.2,0s-1.48,0-2.23-.05-1.52-.08-2.29-.12l-2.33-.09a46.1,46.1,0,0,1-4.9-.51l-.39-.92a37.24,37.24,0,0,1,3.28-3.77c.59-.56,1.15-1.18,1.77-1.7s1.23-1.05,1.88-1.53a45.58,45.58,0,0,1,3.93-2.84c1.38-.83,2.78-1.64,4.22-2.4a49.29,49.29,0,0,1,19.08-5.09,36.71,36.71,0,0,1,5.14,0l2.58.18c.86.06,1.72.25,2.59.37l2.58.42c.86.16,1.71.4,2.56.61l2.56.66,2.5.85a55,55,0,0,1,18,10.58,65.53,65.53,0,0,1,12.66,15.4,84.81,84.81,0,0,1,7.84,17.28,111.82,111.82,0,0,1,5.52,36Z"/><path class="cls-9" d="M223.9,336.5q-1.25-4-2.26-8.14c-.35-1.37-.69-2.74-1-4.11l-.81-4.14c-.47-2.76-1-5.54-1.41-8.33s-.65-5.58-.93-8.4a176.58,176.58,0,0,1,7-68.26,159.39,159.39,0,0,1,14.22-32.6,157.55,157.55,0,0,1,21.34-28.94,128.26,128.26,0,0,1,27.79-22.44,122.66,122.66,0,0,1,32.33-13.57,114.64,114.64,0,0,1,17.15-3.11c1.45-.15,2.91-.26,4.37-.35s2.93-.15,4.4-.17a70.94,70.94,0,0,1,8.94.33l.18.46c-3.94,4.65-8,8.58-12,12.54s-8,7.6-11.82,11.24L320,169.14l-5.49,5.21-2.7,2.59c-.91.84-1.79,1.7-2.66,2.58-7.06,6.88-13.79,13.71-20.24,20.74a195,195,0,0,0-17.79,22.42c-10.88,15.82-19.53,33.58-26.9,52.7-3.78,9.55-7,19.49-10.21,29.68l-2.42,7.69c-.73,2.59-1.53,5.2-2.29,7.82l-1.24,3.94c-.35,1.32-.74,2.64-1.14,4q-1.15,4-2.55,8Z"/><path class="cls-10" d="M223.9,386.49c-1.2-5.75-2.38-11.44-3.3-17.24l-.69-4.35-.55-4.39c-.35-2.93-.67-5.88-.85-8.84a167.54,167.54,0,0,1,1.15-36.15,158.46,158.46,0,0,1,27.39-69.2A181.55,181.55,0,0,1,272,217.82a216.9,216.9,0,0,1,29.74-22.72c10.4-6.68,21.56-12.24,33.85-14.39s25.11-2.3,39,3l.16.48a86.61,86.61,0,0,1-11.93,16.24q-3,3.5-6.21,6.47c-1,1-2.12,1.94-3.18,2.88s-2.09,1.91-3.15,2.83c-2.12,1.8-4.26,3.51-6.46,5.05l-3.24,2.4c-1.09.75-2.17,1.54-3.28,2.25s-2.22,1.42-3.36,2.09-2.2,1.41-3.34,2.06l-6.74,4c-2.21,1.38-4.34,2.84-6.53,4.22L314,236.81l-3.13,2.26-3.15,2.23c-1.06.74-2.13,1.47-3.11,2.29-2,1.59-4,3.16-6.06,4.72a205.31,205.31,0,0,0-22.09,21,182.28,182.28,0,0,0-32.79,52.55c-2.11,4.93-3.92,10-5.72,15.22-.81,2.61-1.75,5.22-2.5,7.89l-1.22,4L233.14,353c-.4,1.35-.71,2.72-1.09,4.08s-.76,2.73-1.09,4.11l-2.08,8.34c-1.38,5.59-2.7,11.31-4.48,16.94Z"/><path class="cls-11" d="M206.4,468.58q-.26-5.07-.4-10.17c-.08-3.39-.19-6.79-.1-10.18s.08-6.79.18-10.19.33-6.79.52-10.2a326.22,326.22,0,0,1,5-40.75l.93-5.09c.34-1.69.76-3.37,1.13-5.06l1.17-5.06.58-2.53.68-2.51c.91-3.36,1.76-6.73,2.77-10.07l3.2-10a237.49,237.49,0,0,1,17.25-38.73c13.8-25,33.53-47.32,56.22-64.79C301.25,238.94,307,234.75,313,231c3-1.95,5.92-3.83,9-5.57,1.52-.9,3.09-1.67,4.67-2.43.78-.39,1.59-.75,2.38-1.11s1.6-.72,2.42-1.05A80.84,80.84,0,0,1,352,215.37a72.22,72.22,0,0,1,11.1-.56c1,0,1.92.05,2.89.12s1.95.15,2.95.27a46.12,46.12,0,0,1,6.14,1.08l.22.44a61.1,61.1,0,0,1-6,10.43,91.8,91.8,0,0,1-6.77,8.56,106.31,106.31,0,0,1-14.82,13.65c-2.54,2-5.2,3.82-7.85,5.58-1.32.88-2.67,1.72-4,2.53s-2.66,1.7-4,2.54-2.67,1.69-4,2.58L324,265.24c-1.32.86-2.59,1.77-3.85,2.69l-3.8,2.73-3.69,2.83c-1.23.95-2.5,1.86-3.68,2.86-2.38,2-4.83,3.87-7.1,6l-3.5,3L295,288.52c-2.28,2.08-4.41,4.31-6.58,6.49-.54.55-1.1,1.09-1.63,1.65l-1.55,1.71-3.12,3.42c-2.06,2.31-4,4.71-6,7.06s-3.84,4.86-5.71,7.35l-2.72,3.8c-.89,1.28-1.87,2.5-2.71,3.82a279.59,279.59,0,0,0-19.06,32.8l-4.13,8.7c-1.33,2.93-2.59,5.91-3.92,8.86l-1,2.23-.91,2.25-1.81,4.53-1.82,4.54-1.71,4.59c-2.36,6.11-4.39,12.36-6.59,18.59-1.05,3.13-2,6.3-3,9.45l-1.54,4.74-1.4,4.79c-4,12.73-7.29,25.71-11.13,38.74Z"/><path class="cls-12" d="M225.34,494.07a60.11,60.11,0,0,1-5-17.43,85,85,0,0,1-.85-9.15c-.12-3.07-.17-6.15,0-9.22s.36-6.12.67-9.17.78-6.08,1.29-9.1a172.78,172.78,0,0,1,4-17.91c6.52-23.57,17-45.8,30.11-66.45a265.57,265.57,0,0,1,22-29.6,226.6,226.6,0,0,1,26.74-26.35,181.74,181.74,0,0,1,15.44-11.48A65.24,65.24,0,0,1,337.58,280a55.86,55.86,0,0,1,20.47-2c.88.09,1.76.2,2.63.31s1.77.3,2.65.5a38.78,38.78,0,0,1,5.25,1.47,33.83,33.83,0,0,1,10,5.35l.06.64c-1.27,1.63-2.5,3-3.67,4.31-.59.7-1.16,1.34-1.73,1.95l-1.66,1.85-3.18,3.51-3,3.25c-4,4.17-7.7,7.86-11.56,11.21a127.1,127.1,0,0,1-12,9.27c-4.23,2.79-8.37,5.86-12.45,9.09a260.56,260.56,0,0,0-23.55,21.3c-7.55,7.65-14.76,15.78-21.67,24.22A370,370,0,0,0,247,430.74c-2.66,4.85-5.2,9.77-7.58,14.78-1.2,2.5-2.3,5-3.38,7.59s-2.12,5.13-3.08,7.74c-3.83,10.46-6.77,21.29-7,33.08Z"/><path class="cls-13" d="M238.9,490.51a46.84,46.84,0,0,1-2-14.14A84.39,84.39,0,0,1,238.08,462a138.48,138.48,0,0,1,7.81-27.51,200.91,200.91,0,0,1,12.23-25.59,237.81,237.81,0,0,1,15.35-23.73,250.26,250.26,0,0,1,18-21.89c3.24-3.46,6.56-6.88,10.05-10.16a117.79,117.79,0,0,1,10.93-9.43,83.55,83.55,0,0,1,26.41-13.56,56.76,56.76,0,0,1,15.51-2.43,42.1,42.1,0,0,1,8.06.72,25.47,25.47,0,0,1,7.68,2.83l0,.5c-2.12,1.75-3.94,3.36-5.63,5s-3.27,3.22-4.78,4.86c-3,3.18-5.86,6.35-8.7,9.43-5.67,6.17-11.36,12.12-17.39,17.88-3,2.88-6.12,5.68-9.21,8.53s-6.15,5.8-9.15,8.82q-9.06,9-17.74,18.53c-11.55,12.71-22.7,25.95-33,39.85q-3.87,5.22-7.51,10.6l-1.82,2.7-1.77,2.73-3.39,5.56c-4.37,7.53-8.37,15.27-10.68,24.26Z"/><path class="cls-14" d="M225.4,494a173.21,173.21,0,0,0-5.82-19.29c-2.27-6.25-4.77-12.36-7.4-18.38A378.9,378.9,0,0,0,194.5,421.5c-12.88-22.33-27.74-43-44.88-60.74a219.28,219.28,0,0,0-27.36-24q-7.26-5.33-14.94-9.87c-5.09-3.06-10.38-5.72-15.66-8.39-10.59-5.32-21.36-10.31-32.81-15.6C53.1,300.28,47.2,297.6,41,294.75c-3.09-1.36-6.23-2.9-9.45-4.41s-6.52-3.09-9.92-5.09v-.5a62.24,62.24,0,0,1,10.18-5.06,81.31,81.31,0,0,1,10.63-3.45,99,99,0,0,1,22-2.78,104.62,104.62,0,0,1,22.23,2.11,111.2,111.2,0,0,1,21.44,6.6A152.49,152.49,0,0,1,128,292.55c3.2,1.92,6.29,4,9.35,6.13l4.53,3.25,4.4,3.4a199.72,199.72,0,0,1,31.11,31,222.31,222.31,0,0,1,23.67,36,239.91,239.91,0,0,1,16.43,39.1,221,221,0,0,1,9.09,41c.41,3.47.79,6.93,1,10.42s.36,7,.33,10.45-.15,7-.45,10.43A73.6,73.6,0,0,1,225.9,494Z"/><path class="cls-15" d="M209.9,495.5a361.76,361.76,0,0,0-10.74-36.38c-1-2.94-2.12-5.85-3.17-8.76s-2.21-5.77-3.37-8.63c-2.28-5.71-4.72-11.33-7.25-16.85-10.16-22-22.38-42.58-37.45-59.24a132,132,0,0,0-24.64-21.49L119.91,342l-3.42-2L113,338.1l-3.55-1.74a131.25,131.25,0,0,0-14.72-5.75c-5-1.7-10.13-3.28-15.43-4.8s-10.78-2.88-16.49-4.32-11.65-2.79-17.88-4.33c-1.55-.37-3.13-.77-4.73-1.19s-3.21-.8-4.85-1.24c-.81-.2-1.64-.44-2.48-.69s-1.65-.41-2.5-.67c-1.69-.48-3.4-1-5.16-1.63l-.11-.48c1.33-1.29,2.71-2.44,4.12-3.57a51,51,0,0,1,4.33-3.13c1.48-1,3-1.93,4.5-2.82s3.1-1.65,4.67-2.44,3.19-1.47,4.81-2.14,3.26-1.36,4.93-1.87,3.36-1.06,5-1.58,3.43-.87,5.16-1.24a93.07,93.07,0,0,1,21.34-2,95.6,95.6,0,0,1,21.64,3.09,114.51,114.51,0,0,1,20.65,7.83,127.46,127.46,0,0,1,18.88,11.34A142.37,142.37,0,0,1,175.69,343a175.24,175.24,0,0,1,20.61,35.95,209.37,209.37,0,0,1,12.19,38.36,219.5,219.5,0,0,1,4.93,39.22,183.57,183.57,0,0,1-.28,19.63c-.11,1.63-.26,3.26-.4,4.89s-.36,3.24-.58,4.86a94.61,94.61,0,0,1-1.76,9.62Z"/><path class="cls-16" d="M228.9,493.51a51.75,51.75,0,0,1-3.16-15.83,48.82,48.82,0,0,1,10.49-32.57,58.42,58.42,0,0,1,13.16-12,76.7,76.7,0,0,1,15.34-7.91c2.64-1,5.28-1.9,7.95-2.65a58.31,58.31,0,0,1,8-1.83,50,50,0,0,1,16.29.18,44.7,44.7,0,0,1,8.11,2.23,36,36,0,0,1,8,4.16l0,.5a48.11,48.11,0,0,1-7.11,5.37,70.23,70.23,0,0,1-7,3.89,88.4,88.4,0,0,1-13.63,5.26c-2.24.68-4.48,1.23-6.69,1.83s-4.38,1.24-6.5,1.95A89.63,89.63,0,0,0,260.12,451a59,59,0,0,0-10.59,6.72,47.89,47.89,0,0,0-8.66,9.26,59.85,59.85,0,0,0-6.6,12.12,146.56,146.56,0,0,0-4.87,14.42Z"/><path class="cls-17" d="M202.65,496a281.14,281.14,0,0,0-9.05-29.09,192.39,192.39,0,0,0-11.95-25.86c-.52-1-1.13-2-1.73-3l-1.74-2.91c-.57-1-1.25-1.86-1.86-2.79s-1.2-1.86-1.83-2.77l-2-2.63c-.65-.86-1.23-1.78-2-2.58l-2-2.46-1-1.23-1.07-1.15a81.29,81.29,0,0,0-18.23-15.25,71.37,71.37,0,0,0-20.84-8.48,98,98,0,0,0-23.58-2.43c-1,0-2.07,0-3.1-.08s-2.11,0-3.17,0c-2.13,0-4.26-.2-6.45-.37-4.41-.12-9-.85-13.75-1.43-1.2-.16-2.42-.39-3.64-.62s-2.48-.5-3.74-.7c-2.52-.46-5.12-1-7.8-1.76-5.4-1.53-11-2.87-17.34-5.94l-.33-.94a50.19,50.19,0,0,1,5.34-8.2,51.63,51.63,0,0,1,6.14-6.8,86.26,86.26,0,0,1,6.8-5.65c.59-.42,1.17-.87,1.77-1.28l1.85-1.14c1.23-.74,2.48-1.48,3.75-2.15l1.91-1,1.94-1a35.57,35.57,0,0,1,4-1.69c2.71-1,5.46-1.91,8.24-2.69s5.71-1.16,8.6-1.6l2.17-.29,1.09-.13,1.11-.05c1.48-.08,3-.12,4.46-.13A117.48,117.48,0,0,1,139.76,353a97.91,97.91,0,0,1,33.09,18.07A99.32,99.32,0,0,1,196,399.45a110,110,0,0,1,11.62,32.49,125.75,125.75,0,0,1,1.94,32.84,116.21,116.21,0,0,1-2.31,16l-.88,3.9-1.1,3.85A79.62,79.62,0,0,1,202.65,496Z"/><path class="cls-18" d="M198.15,495.5c-2.15-3.5-4.05-7.11-5.85-10.71s-3.51-7.21-5.18-10.78c-3.35-7.13-6.63-14.11-10.06-20.68A123.5,123.5,0,0,0,166,435.43a45.78,45.78,0,0,0-12.74-11.86,30.93,30.93,0,0,0-14.32-4.23,49.29,49.29,0,0,0-8.43.24c-3,.37-6,.84-9.22,1.36-6.42,1-13.36,2.17-21,3-3.8.38-7.76.75-12,.88-2.1.06-4.24.12-6.47.06a59.46,59.46,0,0,1-7-.46l-.51-.86a46.8,46.8,0,0,1,3.15-6.34c1.19-1.93,2.45-3.8,3.79-5.57a64.07,64.07,0,0,1,9-9.5,65.46,65.46,0,0,1,23-12.83,63.12,63.12,0,0,1,13.82-2.69,70,70,0,0,1,15,.13,60.11,60.11,0,0,1,15.28,3.88,55.49,55.49,0,0,1,13.76,8.06,58.64,58.64,0,0,1,10.56,11,70.14,70.14,0,0,1,7.29,12.19,98.68,98.68,0,0,1,7.7,24.92A154.27,154.27,0,0,1,199,471.27,231.64,231.64,0,0,1,198.15,495.5Z"/><path class="cls-19" d="M209.9,495.52q-1.58-7.33-3-14.74c-.5-2.47-.87-4.94-1.27-7.42s-.76-4.94-1.14-7.42c-.75-4.95-1.53-9.92-2.1-14.88s-1.25-9.93-1.8-14.89c-2.29-19.87-3.91-39.76-5.39-59.64-2.81-39.76-4.38-79.51-5.27-119.23-.23-9.92-.37-19.85-.53-29.78s-.23-19.84-.25-29.76c-.13-19.84-.06-39.67.08-59.48.15-9.91,0-19.81.56-29.7s1.49-19.78,3-29.66A266.62,266.62,0,0,1,199,49.29c2.84-9.91,5.9-19.76,10.9-29.79h.5c1.38,2.45,2.51,4.91,3.6,7.38s2.05,4.95,3,7.43c1.87,5,3.44,9.94,4.81,14.91s2.57,10,3.59,14.94,1.83,10,2.54,14.93,1.24,10,1.69,14.94.7,9.94.86,14.91c.38,10,0,19.88-.06,29.81q-.45,29.79-1.39,59.53t-2.31,59.46q-2.72,59.44-7.09,118.81l-2.26,29.68-1.15,14.85c-.41,4.95-.86,9.9-1.21,14.85l-2.4,29.71c-.2,2.48-.37,5-.6,7.44s-.45,5-.57,7.45q-.47,7.44-1.07,15Z"/><path class="cls-20" d="M189.75,495.48c-.61-9.8-.91-19.59-1.17-29.35-.14-4.88-.27-9.76-.36-14.62l-.33-14.6c-.47-19.44-.8-38.79-1.5-58.08C185.1,340.27,183.1,302,179,264.27c-2.1-18.84-4.7-37.52-8.16-55.89-1.74-9.17-3.64-18.28-5.85-27.26s-4.65-17.85-7.4-26.54-6-17.13-9.09-25.55-6.22-16.77-9.43-25.16S132.49,87,128.88,78.33c-1.8-4.36-3.7-8.76-5.68-13.33-.45-1.18-1-2.28-1.52-3.43s-1-2.35-1.53-3.53c-1.05-2.36-2.17-4.72-3.16-7.35l.32-.38a63.61,63.61,0,0,1,7.88,2.15c2.51.94,5,1.95,7.48,3.09a92.54,92.54,0,0,1,13.84,8.27,114.76,114.76,0,0,1,22.92,22.34,143.15,143.15,0,0,1,16.49,27c4.52,9.45,7.83,19.31,10.94,29.12a399.15,399.15,0,0,1,13.29,59.53c1.51,10,2.67,19.94,3.59,29.9s1.53,19.92,1.92,29.87a772.64,772.64,0,0,1-4.84,118.29,971,971,0,0,1-20.57,115.69Z"/><path class="cls-21" d="M210,430.52c-2.16-8.23-3.93-16.55-5.5-24.89s-2.92-16.73-4.11-25.13c-2.44-16.8-4.11-33.68-5.43-50.59A838.46,838.46,0,0,1,193.49,228c.8-17,2.11-34.08,4.17-51.13s4.72-34.09,8.32-51.1c.92-4.26,1.81-8.51,2.89-12.76.51-2.12,1.08-4.23,1.62-6.35s1.23-4.22,1.93-6.3,1.4-4.18,2.17-6.25,1.6-4.12,2.46-6.17a124.84,124.84,0,0,1,5.83-12.06c1.09-2,2.19-3.93,3.36-5.86s2.49-3.81,3.76-5.69l2-2.78,2-2.74c1.46-1.79,3-3.54,4.54-5.26A72.08,72.08,0,0,1,261,36.36l.41.28c0,2.53-.18,4.87-.36,7.15-.11,1.13-.18,2.27-.31,3.35s-.16,2.25-.23,3.36c-.18,2.2-.37,4.36-.62,6.46l-.18,1.57-.12,1.6-.3,3.16-.35,3.09-.39,3.05-.32,3.09-.38,3-.43,3c-.07.5-.15,1-.23,1.49l-.2,1.51c-.24,2-.55,4-.86,6-.69,3.92-1.27,7.92-2,11.82s-1.47,7.85-2.37,11.73c-.41,2-.93,3.86-1.31,5.84s-.9,3.9-1.39,5.84c-1,3.87-1.85,7.82-2.73,11.75-6.93,31.52-11.9,64-16.09,96.69s-7.63,65.75-10.8,98.95-6.07,66.53-8.91,100.33Z"/><path class="cls-22" d="M243.16,488.08a47.1,47.1,0,0,1-3.59-20.49,62.48,62.48,0,0,1,4.79-21l1-2.51c.39-.82.8-1.61,1.2-2.42.81-1.61,1.61-3.26,2.55-4.78a106.55,106.55,0,0,1,6-9c1.1-1.4,2.19-2.82,3.32-4.2l3.5-4c2.42-2.58,4.89-5.13,7.5-7.49a143.74,143.74,0,0,1,16.51-13A155.84,155.84,0,0,1,304,388.57l4.73-2.27c1.61-.7,3.24-1.36,4.9-1.92s3.39-1,5.12-1.4a52,52,0,0,1,5.34-.81,42.29,42.29,0,0,1,5.53-.14c.94,0,1.88.11,2.82.2s1.92.26,2.87.44a29.43,29.43,0,0,1,2.89.69c.48.12,1,.28,1.44.44s.95.31,1.44.52c1,.41,1.92.82,2.85,1.32a18.88,18.88,0,0,1,2.71,1.86l0,1c-3,3.17-5.43,5.66-7.95,8-.63.59-1.25,1.14-1.87,1.66s-1.25,1.09-1.87,1.6c-1.25,1-2.5,2-3.77,2.88s-2.55,1.79-3.85,2.57-2.6,1.59-3.94,2.28-2.68,1.4-4.05,2l-4.12,1.94A222,222,0,0,0,284,429.87a139,139,0,0,0-14,11.22c-2.19,2-4.36,4.06-6.33,6.25-1.06,1.05-2,2.17-3,3.3-.47.56-1,1.12-1.44,1.69l-1.33,1.76a69,69,0,0,0-9.07,15.4,66.29,66.29,0,0,0-4.65,18.43Z"/><path class="cls-23" d="M217.9,495.52c-4.58-18.72-8.69-37.46-12.3-56.36s-6.59-37.92-9.09-57.07c-4.85-38.28-7.28-77.08-6.09-116.22a522.66,522.66,0,0,1,5-58.84,382.62,382.62,0,0,1,12.87-58.67c3.06-9.67,6.32-19.39,10.8-28.69A138.61,138.61,0,0,1,235.4,93.19a111.5,111.5,0,0,1,22.73-21.82c2.12-1.56,4.43-2.94,6.66-4.31,1.11-.7,2.31-1.31,3.49-1.93s2.36-1.2,3.54-1.78c2.42-1.1,4.9-2.08,7.39-3A64,64,0,0,1,287,58.31l.32.38c-1,2.6-2,4.94-3.07,7.26-.51,1.17-1,2.37-1.49,3.49s-1,2.22-1.49,3.39l-2.85,6.64c-.44,1.11-.91,2.18-1.36,3.26s-.94,2.12-1.35,3.22c-3.54,8.57-6.81,16.83-10,25.07s-6.21,16.4-9.26,24.63-6.25,16.48-8.91,25-5.09,17.2-7.18,26-4,17.74-5.63,26.74c-3.29,18-5.7,36.37-7.61,54.87-3.76,37-5.33,74.65-6.22,112.54-.5,18.95-.64,38-1,57.08l-.21,14.35c-.06,4.78-.16,9.58-.28,14.37-.21,9.6-.47,19.22-1.09,28.86Z"/><path class="cls-24" d="M220.9,421.5c-3.79-16.78-7.19-33.35-10.43-49.93s-6.32-33.1-9.27-49.6c-5.92-33-11.33-65.89-16.83-98.6-2.75-16.35-5.49-32.66-8.4-48.86-1.47-8.1-3-16.17-4.34-24.24s-2.68-16.14-3.94-24.2c-2.5-16.12-4.71-32.22-7.15-48.26-1.22-8-2.52-16-4.19-24-.38-2-.89-4-1.32-6s-1-4-1.59-6A81.41,81.41,0,0,0,149,29.69l.33-.38c1.06.4,2.13.83,3.2,1.3s2,1.06,3.07,1.64a49.43,49.43,0,0,1,5.77,4,77.24,77.24,0,0,1,10.16,9.54,134.54,134.54,0,0,1,16,22.15,237,237,0,0,1,21.05,48.51c2.62,8.3,4.86,16.67,6.82,25.07s3.49,16.86,4.92,25.32c2.87,16.92,5.12,33.86,6.87,50.83a857.93,857.93,0,0,1,4.28,102c-.31,17-1.15,34-2.68,51l-1.27,12.75c-.52,4.25-1,8.5-1.61,12.74-1.19,8.49-2.56,17-4.48,25.38Z"/><path class="cls-25" d="M214.4,496c-1.4-4.58-2.65-9.19-3.81-13.83s-2.24-9.28-3.24-13.95-1.94-9.35-2.83-14-1.72-9.39-2.46-14.11c-1.58-9.42-2.8-18.89-4-28.39s-2-19-2.67-28.59a596.18,596.18,0,0,1,2.62-115.56A451.78,451.78,0,0,1,209,209.75c.61-2.4,1.31-4.78,2-7.17s1.34-4.78,2.08-7.16c1.42-4.77,3-9.5,4.62-14.24l2.57-7.07c.85-2.35,1.84-4.68,2.75-7l1.41-3.51,1.5-3.48c1-2.32,2-4.65,3.11-6.93a164,164,0,0,1,15.45-26.46A145.68,145.68,0,0,1,265,103.48a118.43,118.43,0,0,1,25.71-17.7c9.33-4.64,19.26-8.09,29.8-9l.26.42c-1.29,2.37-2.66,4.5-4,6.62s-2.57,4.29-3.86,6.3-2.47,4.15-3.71,6.13c-.6,1-1.23,2-1.81,3s-1.15,2-1.73,3c-4.62,8-8.85,15.69-12.87,23.4s-7.74,15.47-11.44,23.21S274,164.4,270.51,172.32c-.91,2-1.75,4-2.63,6l-1.31,3-1.24,3c-.81,2-1.68,4-2.44,6.09l-2.35,6.16c-1.48,4.15-3,8.29-4.33,12.52-.72,2.1-1.42,4.2-2.06,6.33s-1.35,4.24-2,6.39c-5.09,17.09-9.31,34.64-12.91,52.46-7.2,35.64-12,72.24-15.73,109.24-.94,9.26-1.84,18.54-2.58,27.85s-1.52,18.65-2.26,28c-1.4,18.75-2.59,37.57-3.8,56.61Z"/><path class="cls-26" d="M209.9,495.5c-1.47-7.14-3.34-14.08-5.23-21s-4-13.7-6.17-20.46-4.39-13.47-6.83-20.09-4.84-13.2-7.4-19.7c-5.14-13-10.72-25.69-16.83-37.95a323.8,323.8,0,0,0-20.11-35.1A201.74,201.74,0,0,0,123,311a139,139,0,0,0-14-12.3,133.14,133.14,0,0,0-15.14-9.89,187.57,187.57,0,0,0-33.4-14.88c-6.09-2-12.52-4-19.35-5.68-.86-.26-1.72-.44-2.59-.65L35.86,267c-1.76-.49-3.55-.9-5.36-1.32-3.65-1-7.36-1.68-11.29-2.89l-.11-.48C31.48,252,46.93,246.37,63.28,245.05a93.29,93.29,0,0,1,48.48,9.54A121.87,121.87,0,0,1,132.69,268a154.3,154.3,0,0,1,17.89,16.48A194.31,194.31,0,0,1,178,322.65a258.27,258.27,0,0,1,18.35,41.69,307.9,307.9,0,0,1,11.33,43.24,313.93,313.93,0,0,1,5.11,44c.15,3.67.29,7.34.27,11s0,7.35-.21,11-.41,7.34-.79,11a105,105,0,0,1-1.65,10.9Z"/><path class="cls-27" d="M222.4,496c-3.09-17.47-7.05-34.5-11.21-51.46-2.14-8.47-4.23-16.92-6.53-25.32s-4.56-16.77-6.91-25.11c-9.53-33.33-19.94-66.23-32.15-98-6.09-15.9-12.7-31.48-19.94-46.53-3.65-7.51-7.42-14.91-11.48-22s-8.37-14-12.73-20.74-8.83-13.22-13.48-19.46a196.7,196.7,0,0,0-14.73-17.75,117.34,117.34,0,0,0-17.5-15.33l-2.52-1.68-1.29-.86-1.32-.77-2.71-1.62c-.92-.53-1.86-1-2.82-1.49l-1.45-.75a14.26,14.26,0,0,0-1.47-.72c-1-.46-2-.89-3-1.39-2.06-1-4.21-1.68-6.44-2.71l0-.5a48.58,48.58,0,0,1,13.82-4.49c1.22-.19,2.45-.41,3.69-.56s2.47-.17,3.73-.25l1.89-.08,1.88,0,3.79.16a79.16,79.16,0,0,1,29.13,8.57A108,108,0,0,1,135,162.35a147.08,147.08,0,0,1,19.21,21.71,232.83,232.83,0,0,1,15,24q6.74,12.27,12.32,24.86A441,441,0,0,1,200.59,284,590.56,590.56,0,0,1,222.4,389.24l.74,6.65.63,6.67q.6,6.66,1.1,13.33c.55,8.91,1,17.81,1.15,26.73.08,4.46.12,8.92,0,13.38s-.16,8.92-.42,13.38A217.9,217.9,0,0,1,222.9,496Z"/><path class="cls-28" d="M220.9,462.49a214.05,214.05,0,0,1-4.38-36,177.14,177.14,0,0,1,2.55-36.94,173.17,173.17,0,0,1,29-70.15,185.23,185.23,0,0,1,25.38-29.19,220.45,220.45,0,0,1,30.39-23.48c2.69-1.7,5.44-3.29,8.17-4.91,1.37-.81,2.76-1.57,4.15-2.33s2.87-1.34,4.32-2c2.91-1.24,5.87-2.39,8.87-3.41s6.14-1.65,9.26-2.3a62.93,62.93,0,0,1,9.54-1.31,94.56,94.56,0,0,1,9.83-.13c.83,0,1.65.07,2.49.14s1.68.18,2.52.3c1.69.22,3.39.51,5.1.85l2.58.57c.85.2,1.73.46,2.59.68a45.74,45.74,0,0,1,5.27,1.81l.16.48c-3.91,6.78-8.24,11.61-12.48,16.31a144.3,144.3,0,0,1-13,12.28q-3.28,2.73-6.66,5.12t-6.7,4.74c-1.13.74-2.3,1.43-3.45,2.14s-2.25,1.46-3.4,2.14c-2.29,1.39-4.66,2.67-6.92,4.09s-4.45,2.93-6.7,4.36l-1.69,1.08c-.55.36-1.08.77-1.62,1.15L312.91,311l-3.25,2.29c-1.1.74-2.09,1.62-3.14,2.42l-3.12,2.44c-1,.83-2.14,1.57-3.11,2.46-2,1.71-4,3.45-6,5.14s-3.84,3.59-5.77,5.38-3.73,3.71-5.59,5.57c-.91.95-1.86,1.87-2.75,2.84l-2.62,2.95a206.9,206.9,0,0,0-34.64,54.2c-2.3,5-4.32,10.26-6.35,15.54l-1.42,4-.73,2-.67,2-1.38,4.07-1.29,4.11c-.45,1.38-.82,2.77-1.25,4.16s-.86,2.77-1.24,4.18l-2.37,8.48c-1.55,5.69-3,11.49-4.82,17.27Z"/><path class="cls-29" d="M214.9,496.5c-1.51-8.16-2.69-16.37-3.61-24.6s-1.67-16.5-2.15-24.78-.77-16.58-.93-24.89c0-4.16,0-8.31,0-12.48s.11-8.32.29-12.49c1.17-33.31,5.5-66.79,14.3-99.75A315.59,315.59,0,0,1,240,248.83a251.71,251.71,0,0,1,12.08-23.41,186.46,186.46,0,0,1,15-22.17c11.27-14,25.63-26.25,42.24-34.1a96.69,96.69,0,0,1,26-8.19,79.81,79.81,0,0,1,13.43-1.05c1.12,0,2.25,0,3.36.1s2.21.05,3.34.22c2.24.27,4.45.57,6.66,1l.11.48c-1.75,1.48-3.5,2.79-5.22,4.07s-3.35,2.68-5,3.91c-3.27,2.61-6.43,5.12-9.44,7.72-6,5.12-11.57,10.33-16.77,15.63a295.36,295.36,0,0,0-28,33.67c-4.27,6-8.47,12-12.3,18.49s-7.42,13.07-10.8,19.9A384.32,384.32,0,0,0,257.09,308c-10.22,29.59-17.87,60.61-24.45,92.15L230.25,412q-1.19,5.94-2.27,11.92c-1.56,8-2.92,16-4.36,24-2.83,16.07-5.38,32.25-8.22,48.59Z"/><path class="cls-30" d="M233.4,494A252.16,252.16,0,0,0,222,459.4a233.2,233.2,0,0,0-15.75-31.13c-11.93-19.43-26.88-35.73-44.4-47.22s-37.5-18.38-59-21.33c-1.34-.22-2.66-.52-4-.77s-2.71-.38-4.06-.61c-2.73-.39-5.42-1.09-8.19-1.5s-5.56-.95-8.37-1.53c-.7-.16-1.41-.33-2.11-.47s-1.43-.23-2.14-.36c-1.43-.26-2.87-.53-4.32-.84s-2.89-.64-4.36-1c-.73-.18-1.46-.37-2.2-.54s-1.48-.3-2.22-.46c-3-.63-6-1.35-9.06-2.21-6.15-1.74-12.44-3.26-19.17-6.21l-.09-.5a88.65,88.65,0,0,1,35.61-19c1.6-.47,3.21-.89,4.82-1.3.81-.21,1.62-.4,2.43-.59s1.64-.29,2.46-.44c3.29-.53,6.61-1,9.94-1.35a44.21,44.21,0,0,1,5-.31c1.68,0,3.36-.08,5-.07s3.37,0,5.06.05,3.38.27,5.07.46,3.38.36,5.07.59a46.56,46.56,0,0,1,5,.82l10.06,2.16c3.33.89,6.64,1.93,9.95,2.91.82.26,1.66.47,2.47.78l2.45.91,4.86,1.88a139.74,139.74,0,0,1,36,21.13,138,138,0,0,1,27.73,30.51,148.13,148.13,0,0,1,17.46,36,159.9,159.9,0,0,1,7.46,38.17c.11,1.6.16,3.21.25,4.81s.12,3.19.09,4.79l0,4.79c-.05,1.59-.16,3.19-.25,4.77-.17,3.17-.52,6.34-1,9.47-.23,1.57-.48,3.13-.78,4.68s-.67,3.1-1,4.62Z"/><path class="cls-31" d="M220.9,496.5a128.65,128.65,0,0,1-3.41-16.74A160,160,0,0,1,216,462.64l-.12-4.33c0-1.44,0-2.87,0-4.32,0-2.89.17-5.78.33-8.69.08-1.45.21-2.89.36-4.34l.44-4.36c.35-2.9.8-5.79,1.24-8.69a163.24,163.24,0,0,1,9.79-34.28,151.26,151.26,0,0,1,17.81-31.92,146.26,146.26,0,0,1,25.65-26.86l3.63-3c1.21-1,2.52-1.81,3.78-2.72l3.82-2.66a46.42,46.42,0,0,1,3.89-2.55l8-4.71c1.33-.8,2.74-1.4,4.12-2.09s2.78-1.32,4.19-2a63.75,63.75,0,0,1,8.59-3.27c1.45-.48,2.92-.92,4.38-1.36.74-.21,1.46-.44,2.2-.64s1.49-.32,2.24-.48c3-.62,6-1.13,9-1.58.76-.1,1.51-.22,2.26-.29l2.28-.15c1.52-.08,3-.15,4.55-.18a76.08,76.08,0,0,1,36.13,7.49l.06.5c-5,4.63-9.91,7.8-14.65,11.14-2.37,1.66-4.72,3.17-7.06,4.59-.59.35-1.17.71-1.76,1l-1.71,1.12c-1.14.72-2.27,1.46-3.41,2.12s-2.27,1.34-3.41,2c-.56.33-1.13.63-1.7.93s-1.11.68-1.66,1c-2.2,1.32-4.4,2.59-6.62,3.74-.56.3-1.12.56-1.66.88s-1.07.63-1.61.95c-1.08.62-2.15,1.23-3.24,1.8s-2.16,1.16-3.26,1.69a17.71,17.71,0,0,0-1.6.89l-1.59.89a156.05,156.05,0,0,0-45.94,34.21c-13,14.32-23.63,31.52-32.13,50.54L238.59,442c-.92,2.46-2,4.88-2.88,7.38-1.94,5-3.62,10-5.32,15.18-3.35,10.31-6.15,20.93-9,31.94Z"/></g><g id="colors"><path class="cls-32" d="M304.65,357c9.27,21.63,15-39,29-27,0,0,29-117-14-129s-57.5,38.5-51,71S301.65,350,304.65,357Z"/><path class="cls-33" d="M304.46,356.53c-4,99.32-99.32,105.34-99.32,105.34A138.75,138.75,0,0,1,189.89,467c7.13-15.64,18.48-39.38,23.76-44,0,0,19,16,36,7,0,0,9-26-7-45,0,0,30-18,25-46-4.92-27.54-11.77-46.37,5.12-76.47C272.92,302.39,304.46,356.53,304.46,356.53Z"/><path class="cls-33" d="M121.87,319.41s-14,33.1-10,57.18,23.08,54.18,23.08,54.18-4.52,60.69,70.22,31.1c0,0,95.31-6,99.32-105.34,0,0-33.6-57.69-31.6-97.82,0,0-36.21-57.71-91.79-20.57,0,0-17.56-25.58-44.15,5,0,0,.5,17.56-6,34.11s-9.53,13.54-9,28.09,0,15.05,0,15.05"/><path class="cls-34" d="M304.46,356.53c-4,99.32-99.32,105.34-99.32,105.34A138.75,138.75,0,0,1,189.89,467c7.13-15.64,18.48-39.38,23.76-44,0,0,19,16,36,7,0,0,9-26-7-45,0,0,30-18,25-46-4.92-27.54-11.77-46.37,5.12-76.47C272.92,302.39,304.46,356.53,304.46,356.53Z"/><path class="cls-35" d="M288.93,413.63C295.65,407,307.65,399,310.65,402l18-19s21-49,1-56c-17-6-26.4,21.78-27,32C301.65,376,288.93,413.63,288.93,413.63Z"/><path class="cls-36" d="M149.15,232.5c-2.79,2.72-12.5,13.5-12.5,13.5s-12.5-6.5,6.5-18.5c-15-9-2-17,5-18-32-15,5-19,12-14,0-2.77-11.5-23.5,9.5-14.5-4-14,4-20,14-3,5-32,54.5-27.5,42.5-12.5,15-9,54.66-5.74,60,10,37,10.57,47,26,36,31,14.58,8.39.36,17.58-15,13,12,11,2,25-16,11,17,18,0,18-17,11,13,12,3,24.44,0,19-13-24-47.13-32.14-60-33-12.5-.84-32,11-32,11S160,221.94,149.15,232.5Z"/><path class="cls-35" d="M195.15,330.5s7-13,18-11,26,14,26,14-23,0-29-3S195.15,330.5,195.15,330.5Z"/><path class="cls-35" d="M131.15,320.5c4-1,27,2,27,2s-5-13-17-11S131.15,320.5,131.15,320.5Z"/></g><g id="lines"><path d="M135.83,398.53a10,10,0,0,1,3-.75,9.44,9.44,0,0,1,3.12.51c.48.21,1,.42,1.48.69s.84.48,1.24.75c.19.11.43.31.55.37a4.23,4.23,0,0,1,.42.25,2.62,2.62,0,0,0,.72.39c.19.06.35.14.5.2a1.65,1.65,0,0,1,.44.12l.19.09.29.09a3.7,3.7,0,0,1,.54.24,2.28,2.28,0,0,0,.67.26l.75.26c.26.08.48.18.78.25l.91.2,1.83.42,2,.33,2,.34c.67.11,1.39.16,2.07.25,1.4.17,2.78.37,4.18.53s2.85.29,4.27.45l8.62.9,8.7,1c5.82.79,11.67,1.48,17.56,2.84l0,1c-2.91.78-5.83,1.43-8.76,2s-5.85,1-8.8,1.41-5.88.76-8.85,1c-1.49.14-3,.2-4.46.3s-3,.15-4.48.17-3,.06-4.5.05-3-.11-4.57-.17c-.77,0-1.52-.06-2.3-.15l-2.36-.26c-.79-.09-1.56-.16-2.36-.27l-2.47-.5-1.23-.26c-.42-.09-.89-.26-1.32-.39l-1.33-.43a9,9,0,0,1-1.38-.53c-.48-.23-1-.47-1.43-.73l-.69-.4c-.24-.16-.47-.36-.7-.54-.47-.38-.91-.78-1.33-1.19a14.83,14.83,0,0,1-1-1.35,6,6,0,0,1-.71-1.27c-.09-.2-.18-.41-.26-.61a2.12,2.12,0,0,1-.15-.48c-.07-.28-.13-.66-.18-.92s-.05-.54-.09-.84a5.24,5.24,0,0,0-.2-.92c-.07-.34-.15-.7-.27-1.09-.3-.71-.61-1.56-1-2.6Z"/><path d="M195.15,330.5c.08-2.51,1.54-4.34,2.91-6.14a21.63,21.63,0,0,1,5.13-4.76,14.64,14.64,0,0,1,7-2.25l.95-.05.93.08.94.09a4.83,4.83,0,0,1,.9.15l1.72.42c.56.17,1.1.36,1.65.54,1.11.34,2.13.82,3.19,1.24s2.05,1,3,1.51a59.7,59.7,0,0,1,5.7,3.47A96.65,96.65,0,0,1,239.58,333h0l-.44,1.22h0c-3.73,0-7.46,0-11.19-.18s-7.46-.43-11.19-.95a37.81,37.81,0,0,1-5.61-1.16l-1.41-.57c-.4-.16-.78-.34-1.18-.49a14.3,14.3,0,0,0-2.53-.58,28.86,28.86,0,0,0-5.35-.12A54.28,54.28,0,0,1,195.15,330.5Zm0,0a12.43,12.43,0,0,1,5.36-1.93,19.27,19.27,0,0,1,5.78-.15,16.34,16.34,0,0,1,2.89.67l2.56,1.06A36,36,0,0,0,217,331.3c3.63.55,7.33.83,11,1.06s7.4.38,11.1.45h0l-.43,1.23c.19-.66-.09-.76-.38-.82a2.11,2.11,0,0,1-.46-.07,2,2,0,0,1-.35-.2l-1.37-.88c-.92-.58-1.84-1.15-2.77-1.71q-2.79-1.65-5.66-3.14a73,73,0,0,0-11.65-5c-.49-.14-1-.3-1.48-.42l-1.46-.29a10.07,10.07,0,0,0-1.4-.17c-.22,0-.45-.06-.68-.07l-.68,0A13.26,13.26,0,0,0,205,322.8a22.15,22.15,0,0,0-4.95,3.42c-.39.35-.76.72-1.14,1.08s-.72.75-1.09,1.13A12.66,12.66,0,0,1,195.15,330.5Z"/><path d="M131.4,320.07c.23-.12.41-.23.58-.3a5.65,5.65,0,0,1,.82-.13c.59-.09,1.16-.1,1.74-.14,1.15,0,2.29,0,3.43.05,2.27.13,4.53.41,6.78.68s4.49.63,6.72,1,4.46.79,6.68,1.27h0a25.44,25.44,0,0,0-6.1-6.6,14.25,14.25,0,0,0-1.81-1.12,12.68,12.68,0,0,0-1.88-.86,12.2,12.2,0,0,0-3.94-.66h-1c-.33,0-.67.1-1,.14l-1,.14-1,.26a17.75,17.75,0,0,0-3.84,1.36,12.42,12.42,0,0,0-2.93,2,7.57,7.57,0,0,0-1.12,1.34c-.17.27-.32.56-.48.88-.07.15-.14.32-.2.49l-.1.26,0,.13s0,.09,0,0A.34.34,0,0,0,131.4,320.07Zm-.5.86a.68.68,0,0,1-.28-.34c0-.11,0-.07-.06-.11l-.1-.16-.17-.31c-.1-.21-.18-.43-.27-.66a6.1,6.1,0,0,1-.23-1.43,6.35,6.35,0,0,1,.68-2.88,8.51,8.51,0,0,1,4.13-3.84,19.17,19.17,0,0,1,4.92-1.5l1.23-.22c.43,0,.87-.06,1.31-.09s.87-.06,1.31-.05l1.32.12a13.57,13.57,0,0,1,2.58.52,6.65,6.65,0,0,1,1.22.46c.4.18.81.33,1.19.54a15.7,15.7,0,0,1,4,3.1,18.75,18.75,0,0,1,4.47,8.42h0c-2.26-.09-4.53-.2-6.78-.35l-6.77-.41-6.74-.4-3.34-.23c-.55,0-1.11-.08-1.65-.1-.3,0-.5,0-.87,0A6.45,6.45,0,0,1,130.9,320.93Z"/><path d="M159.65,382.5c0,.05,0,.16,0,.18l-.09-.05-.21-.12-.48-.28-1-.55c-.69-.37-1.4-.73-2.09-1.12-1.38-.77-2.76-1.57-4.1-2.44s-2.67-1.78-4-2.76a36.53,36.53,0,0,1-3.76-3.23A20.13,20.13,0,0,1,140.6,368a10,10,0,0,1-1.18-2.93l-.14-.9c0-.32,0-.65,0-1a6.74,6.74,0,0,1,.37-1.89,16.76,16.76,0,0,1,1.21-2.57c.42-.75.86-1.46,1.3-2.15.87-1.39,1.81-2.68,2.76-4,3.74-5.12,7.8-9.86,11.52-14.85a89.11,89.11,0,0,0,5.23-7.65c.77-1.32,1.49-2.67,2.12-4a17.6,17.6,0,0,0,1.28-4.2,6.82,6.82,0,0,0,0-2c-.12-.72-.31-1.52-.46-2.28-.3-1.54-.69-3.05-1.08-4.54a26.28,26.28,0,0,0-3.61-8.12,18.81,18.81,0,0,0-6.3-5.44,40.09,40.09,0,0,1-4-2.79c-1.25-1-2.54-1.88-3.83-2.74a43.07,43.07,0,0,0-7.71-4.36,7.7,7.7,0,0,0-3.26-.69,1.44,1.44,0,0,0-.77.25,2.75,2.75,0,0,0-.27.24l-.15.19c-.06.07-.19.26-.28.39-.82,1.08-1.51,2.36-2.27,3.59s-1.67,2.45-2.6,3.66c-1.83,2.46-3.68,5-5.91,7.47l-.94-.34a32.26,32.26,0,0,1,1.63-9.76,22.37,22.37,0,0,1,1.93-4.58,31.66,31.66,0,0,1,3-4.15c.16-.18.26-.31.46-.53l.67-.67a8.25,8.25,0,0,1,1.63-1.12,8.05,8.05,0,0,1,3.74-.87,10.25,10.25,0,0,1,3.18.56,16.53,16.53,0,0,1,2.59,1.1,34.94,34.94,0,0,1,4.32,2.71c1.34,1,2.62,1.93,3.87,2.91,2.44,2,5.1,3.7,7.53,5.36a22.33,22.33,0,0,1,3.95,3.37,18.51,18.51,0,0,1,3,4.31,35.15,35.15,0,0,1,2.77,9.49l.85,4.67c.15.78.3,1.51.44,2.33a9,9,0,0,1,0,2.68A20.62,20.62,0,0,1,166,327c-.58,1.52-1.23,3-1.95,4.43q-2.13,4.31-4.58,8.39c-3.24,5.45-6.7,10.75-10.17,15.89l-2.49,3.84c-.4.64-.77,1.27-1.12,1.89a10.94,10.94,0,0,0-.79,1.67,1,1,0,0,0-.07.25c0,.05-.05.08,0,.15a.67.67,0,0,1,0,.2,2.51,2.51,0,0,1,0,.27,6,6,0,0,0,.52,1.43,18.93,18.93,0,0,0,2.31,3.33,86.93,86.93,0,0,0,6.27,6.55c1.12,1.08,2.24,2.16,3.37,3.27.57.54,1.11,1.12,1.67,1.69.29.29.56.59.83.9.14.16.27.31.41.49a2.77,2.77,0,0,1,.21.29l.11.16a1.12,1.12,0,0,1,.13.45Z"/><path d="M171.15,387.5a12.36,12.36,0,0,1,.1-3.93,10.81,10.81,0,0,1,1.39-3.87,8.21,8.21,0,0,1,3.24-3.1,8.65,8.65,0,0,1,4.51-.82,10.94,10.94,0,0,0,6.19-1.1,11.68,11.68,0,0,0,4.57-5.18,8.38,8.38,0,0,1-2.86,7.53,9,9,0,0,1-4,2,11.24,11.24,0,0,1-2.15.3c-.71,0-1.41-.05-2.11-.08a5.84,5.84,0,0,0-5.35,2A20.71,20.71,0,0,0,171.15,387.5Z"/><path d="M158.77,375.18a11.2,11.2,0,0,1,.15-3.23,7.13,7.13,0,0,1,1.33-3,6.94,6.94,0,0,1,1.44-1.42,7.27,7.27,0,0,1,1.88-1,10.53,10.53,0,0,1,3.63-.62,17.25,17.25,0,0,1,5.94,1.16,25.18,25.18,0,0,1,2.64,1.21,19.24,19.24,0,0,1,2.47,1.68l-.19,1a30.25,30.25,0,0,1-5.57,1.1c-1.75.22-3.45.35-4.83.58a5.77,5.77,0,0,0-.94.19l-.4.1a2.37,2.37,0,0,0-.32.13,12.76,12.76,0,0,0-1.18.52c-1.06.45-2.8,1.94-5.29,2.21Z"/><path d="M207.46,390.11a22.61,22.61,0,0,1,7,4.72,25.1,25.1,0,0,1,5.08,7,24.08,24.08,0,0,1,2.41,8.3,21.39,21.39,0,0,1-.85,8.41,47.31,47.31,0,0,0-1.74-7.89,34.81,34.81,0,0,0-3.14-7,58.59,58.59,0,0,0-4.43-6.33c-1.6-2.07-3.34-4.07-5-6.35Z"/><path d="M131.15,405.5a29.94,29.94,0,0,1-1.7-7.06,21,21,0,0,1,.45-7.39,22.85,22.85,0,0,1,1.18-3.53c.26-.56.48-1.13.76-1.67l.89-1.61a31.33,31.33,0,0,1,4.42-5.74c-.9,2.25-1.91,4.39-2.76,6.55-.41,1.1-.81,2.18-1.17,3.26s-.63,2.19-.87,3.3a38.54,38.54,0,0,0-.77,6.76C131.45,400.68,131.49,403.07,131.15,405.5Z"/><path d="M124.15,391.5c0-.87,0-1.74,0-2.62s.2-1.73.37-2.59a22.16,22.16,0,0,1,1.61-5,20,20,0,0,1,2.86-4.59,7,7,0,0,1,2.19-1.72,4.45,4.45,0,0,1,2.93-.45,15.81,15.81,0,0,1-2.61,4.31,29.8,29.8,0,0,0-2.73,3.84c-.87,1.35-1.59,2.82-2.38,4.28-.36.75-.73,1.5-1.12,2.26S124.58,390.73,124.15,391.5Z"/><path d="M194.15,455.5q1.84-4.38,3.86-8.66c1.34-2.86,2.76-5.7,4.31-8.47a81.69,81.69,0,0,1,5.08-8.08,29.79,29.79,0,0,1,6.75-6.79c-1.54,2.85-3.29,5.41-5,8s-3.46,5.18-5.1,7.85l-4.84,8.1C197.59,450.18,195.94,452.88,194.15,455.5Z"/><path d="M197.82,303.12a10.65,10.65,0,0,1,1.57-4.05,11.5,11.5,0,0,1,3-3.1c2.41-1.75,5.49-2.35,8.31-2.61a40.86,40.86,0,0,1,15.65,2.56c1.19.42,2.38.85,3.55,1.3s2.3,1,3.44,1.5c2.29,1,4.45,2.2,6.65,3.33s4.27,2.47,6.35,3.78,4.09,2.74,6.07,4.22l-.45.9c-2.39-.64-4.71-1.38-7-2.12s-4.62-1.45-6.91-2.19l-3.44-1.05c-1.14-.36-2.27-.73-3.41-1s-2.28-.66-3.41-1-2.27-.55-3.39-.84c-4.49-1-9-1.79-13-1.46-4,.49-6.61,2.1-12.85,2.59Z"/><path d="M136.65,246a43.47,43.47,0,0,1,7.55-11.35,34.74,34.74,0,0,1,5.31-4.61,28.12,28.12,0,0,1,6.48-3.47,22.17,22.17,0,0,1,7.53-1.42,22.49,22.49,0,0,1,7.54,1.33,30.21,30.21,0,0,1,11.75,8.18h0l-3.13-.15c1-.79,1.95-1.4,2.94-2s2-1.2,3-1.74a56.9,56.9,0,0,1,6.24-2.89,58.35,58.35,0,0,1,13.36-3.52,55.1,55.1,0,0,1,13.88-.19,56.71,56.71,0,0,1,6.87,1.2,64.54,64.54,0,0,1,6.63,2.07c8.65,3.21,16.35,8.08,23.51,13.43a86.49,86.49,0,0,1,10,8.89,64.61,64.61,0,0,1,8.4,10.43l-.74.68c-3.62-2.54-7.14-5.14-10.63-7.71s-7-5.1-10.5-7.55a96.66,96.66,0,0,0-22.29-12.11,53.14,53.14,0,0,0-24.36-2.9,60.4,60.4,0,0,0-18,5.06c-.94.43-1.88.89-2.8,1.37s-1.87,1-2.62,1.49l-1.78,1.14-1.35-1.29h0a37.27,37.27,0,0,0-10.5-5.72,17.35,17.35,0,0,0-10.85.07,27.92,27.92,0,0,0-5.28,2.46c-1.74,1-3.4,2.25-5.11,3.49C144.32,241.1,140.86,243.93,136.65,246Z"/><path d="M137.15,271.5a61.18,61.18,0,0,1,9.64-5.26,50.62,50.62,0,0,1,5.2-1.92l2.68-.79,2.73-.59c7.32-1.54,14.87-1.3,22.15-.37,1.82.27,3.65.51,5.45.86l5.38,1.12c1.78.41,3.54.91,5.3,1.38s3.49,1,5.23,1.56a163.45,163.45,0,0,1,20.24,8c-7.09-1.59-14-3.47-21.07-4.91A177.58,177.58,0,0,0,179,267a93.75,93.75,0,0,0-21,0l-2.61.32-2.59.44-1.31.21-1.29.28c-.87.19-1.74.34-2.61.54C144.18,269.65,140.71,270.62,137.15,271.5Z"/><path d="M227.54,418.81l-.48.71-.25.36-.06.09,0,0h0c-1.95-1.44-.5-.46-.95-.76h0l0,0,.11-.18.95-1.44c.62-1,1.23-1.92,1.83-2.89a58.37,58.37,0,0,0,3.27-5.89,7.75,7.75,0,0,0,.52-1.38,3.6,3.6,0,0,0,0-1.1,6,6,0,0,0-.35-1.19c-.19-.44-.42-.93-.66-1.44a69.64,69.64,0,0,1-2.79-6.53h0a2.57,2.57,0,1,1,4.83-1.78c0,.13.08.26.11.39a66.23,66.23,0,0,0,1.65,6.48c.17.57.34,1.16.5,1.81a8.39,8.39,0,0,1,.23,2.18,6.72,6.72,0,0,1-.46,2.29,12,12,0,0,1-.95,1.73,61.39,61.39,0,0,1-4.29,5.61c-.74.89-1.49,1.76-2.26,2.63l-1.15,1.3-.14.16,0,0h0c-.45-.29,1,.69-.95-.74,0,0,0,0,0,0l0,0,.07-.08.3-.32.58-.63a.5.5,0,0,1,.71,0A.5.5,0,0,1,227.54,418.81Z"/><path d="M122.61,319.7a163.77,163.77,0,0,0-7.93,28.08A109.92,109.92,0,0,0,113,362.2c-.1,2.4-.11,4.81,0,7.2a55.69,55.69,0,0,0,.85,7.07c1.85,9.39,5.48,18.45,9.59,27.19A229.88,229.88,0,0,0,137.5,429h0l.5.81-.07.89c-.06.79-.08,1.8-.07,2.72s0,1.89.12,2.84a44.25,44.25,0,0,0,.74,5.63,38,38,0,0,0,3.65,10.57,27.23,27.23,0,0,0,6.9,8.45,26.88,26.88,0,0,0,9.78,4.89,41.06,41.06,0,0,0,11.21,1.37,65,65,0,0,0,11.5-1.16,120.45,120.45,0,0,0,22.51-6.74h0l.33-.13.4,0a92,92,0,0,0,9.51-1.44q4.77-.94,9.46-2.28a124.39,124.39,0,0,0,18.27-6.59,102.83,102.83,0,0,0,31.65-21.92,95.17,95.17,0,0,0,20.83-32.31,97.75,97.75,0,0,0,6.44-38.2h0l.4,1.63c-3.88-7.3-7.35-14.63-10.64-22.12s-6.31-15.05-9-22.75a209,209,0,0,1-6.81-23.47,112.25,112.25,0,0,1-3-24.17,111.64,111.64,0,0,0,4.43,23.8,210.34,210.34,0,0,0,8.15,22.76c3.11,7.44,6.58,14.73,10.25,21.9s7.6,14.25,11.76,21l.41.66v1h0c-.8,6.72-1.73,13.39-3,20-.64,3.3-1.44,6.57-2.28,9.84s-1.89,6.47-3.09,9.63a100.41,100.41,0,0,1-3.9,9.36,94,94,0,0,1-4.81,8.95c-.86,1.46-1.8,2.87-2.74,4.29s-2,2.77-3,4.11a93.79,93.79,0,0,1-6.64,7.72,107.86,107.86,0,0,1-33.28,23,128.89,128.89,0,0,1-19,6.82q-4.89,1.31-9.87,2.23a97.09,97.09,0,0,1-10.14,1.36l.73-.16h0a131.77,131.77,0,0,1-23.4,7A69.41,69.41,0,0,1,170.3,472a45.1,45.1,0,0,1-12.55-1.49,31.56,31.56,0,0,1-19.89-15.6,43.46,43.46,0,0,1-4.33-12,57.72,57.72,0,0,1-1-6.24c-.1-1.05-.17-2.1-.2-3.16s-.06-2.07,0-3.27l.43,1.7h0a233.73,233.73,0,0,1-13.43-26.51c-1.94-4.56-3.73-9.19-5.25-13.92A95.34,95.34,0,0,1,110.58,377a59.86,59.86,0,0,1-.61-7.53c0-2.51.08-5,.28-7.48a110.49,110.49,0,0,1,2.33-14.66,165.65,165.65,0,0,1,9.11-28.06.5.5,0,0,1,.93.38Z"/><path d="M194.77,337.82c-1.16-1.11-2.38-2.17-3.61-3.21s-2.5-2.11-3.72-3.31a17.82,17.82,0,0,1-3.29-4.27,14.45,14.45,0,0,1-1.6-5.53v-.09a2.63,2.63,0,0,1,5.23-.48,2.7,2.7,0,0,1,0,.57,10,10,0,0,0,.23,3.93,14.29,14.29,0,0,0,1.86,3.9c1.7,2.58,3.89,5.12,5.7,7.85a.51.51,0,0,1-.15.7A.5.5,0,0,1,194.77,337.82Z"/><path d="M247.15,339.5a6.34,6.34,0,0,1-2.43-.87,12.51,12.51,0,0,1-2.06-1.53,18.19,18.19,0,0,0-3.89-3,.7.7,0,0,1,.61-1.27.56.56,0,0,1,.15.1h0c1.33,1.16,2.56,2.32,3.79,3.45A23.6,23.6,0,0,0,247.15,339.5Z"/><path d="M286.2,260a12.9,12.9,0,0,1,5.61.83,12.41,12.41,0,0,1,4.85,3.5,18.15,18.15,0,0,1,3,5.07c.37.9.69,1.81,1,2.72s.48,1.83.68,2.74c1.52,7.36,1.27,14.57,1.06,21.59-.09,3.51-.15,7,0,10.42.09,1.71.23,3.4.47,5.05a46.91,46.91,0,0,0,1,5,63,63,0,0,0,3.29,9.8,59.14,59.14,0,0,0,4.84,9.19l-1.78.07a35.87,35.87,0,0,1,4.56-5.47,25.49,25.49,0,0,1,2.7-2.36,18,18,0,0,1,3.08-1.94,11.05,11.05,0,0,1,7.47-1,16.63,16.63,0,0,1,6.65,3.46,19.8,19.8,0,0,1,4.63,5.8,23,23,0,0,1,2.41,7,17.6,17.6,0,0,1,.25,3.79,11.19,11.19,0,0,1-.23,1.94c-.12.6-.24,1.21-.38,1.77-.56,2.28-1.21,4.49-1.85,6.71-1.28,4.44-2.69,8.82-4.09,13.2l-2.12,6.57-1.07,3.28-.54,1.64-.27.82c-.11.29-.15.5-.31.88a8.47,8.47,0,0,1-1.08,1.7c-.38.48-.77.92-1.16,1.35-.79.87-1.61,1.69-2.44,2.51-1.63,1.63-3.3,3.21-4.88,4.89s-3.12,3.36-4.59,5.11a35.39,35.39,0,0,0-3.92,5.52l-.23.41-.8.07h0a17.61,17.61,0,0,0-3.42-.09,16.42,16.42,0,0,0-3.41.57,11.71,11.71,0,0,0-3.13,1.38,9.44,9.44,0,0,0-2.5,2.34h0a.5.5,0,0,1-.82-.56,10.38,10.38,0,0,1,2.58-2.83,13.07,13.07,0,0,1,3.38-1.84,18.33,18.33,0,0,1,3.71-.93,19.62,19.62,0,0,1,3.86-.2h0l-1,.48c3.11-3.66,6.36-6.82,9.48-10.22,1.57-1.68,3.06-3.44,4.52-5.2.73-.88,1.44-1.78,2.12-2.67.34-.45.67-.9,1-1.35a6.5,6.5,0,0,0,.72-1.23l1.88-6.55,1.86-6.64,3.6-13.27c.59-2.21,1.16-4.44,1.65-6.62.14-.56.24-1.08.34-1.61a8.42,8.42,0,0,0,.18-1.48,14.54,14.54,0,0,0-.23-3.06,21.2,21.2,0,0,0-5.75-11.08,13.81,13.81,0,0,0-5.22-3.32,8.21,8.21,0,0,0-5.94.42,17.3,17.3,0,0,0-5.29,3.81,30.06,30.06,0,0,0-4.08,5.23l-.84,1.38-1-1.31A77.59,77.59,0,0,1,300.06,318a45,45,0,0,1-1.55-5.33,51.94,51.94,0,0,1-.85-5.46c-.39-3.63-.54-7.23-.66-10.79s-.18-7.07-.24-10.54-.14-6.9-.49-10.22a39.75,39.75,0,0,0-.85-4.84,18.1,18.1,0,0,0-1.72-4.36,11,11,0,0,0-3.08-3.42A14.42,14.42,0,0,0,286.1,261h0a.51.51,0,0,1-.34-.63A.52.52,0,0,1,286.2,260Z"/><path d="M311.66,358.39a93,93,0,0,1,1.41-9.87,48.4,48.4,0,0,1,1.25-4.91,28.27,28.27,0,0,1,1.94-4.84,14.1,14.1,0,0,1,3.41-4.46,8.5,8.5,0,0,1,2.77-1.54,7.83,7.83,0,0,1,3.25-.32,9.66,9.66,0,0,1,1.48.3c.46.11.91.28,1.37.44a11.09,11.09,0,0,1,2.61,1.42,10.27,10.27,0,0,1,3.56,4.78c1.33,3.68,1.09,7.3.64,10.68A67.3,67.3,0,0,1,333,360L330,369.36c-.5,1.55-1,3.11-1.48,4.68-.23.78-.46,1.56-.67,2.33-.1.39-.21.78-.29,1.15l-.12.56,0,.23,0,.08v-.13l0-.1a1.29,1.29,0,0,0-.3-.51l-.19,1.86c-1.1.68-2.22,1.48-3.29,2.29a38.16,38.16,0,0,0-3.09,2.59,26.12,26.12,0,0,0-2.75,2.92,13.21,13.21,0,0,0-2.06,3.35h0a.5.5,0,0,1-.65.28.51.51,0,0,1-.29-.61,18.73,18.73,0,0,1,4.5-7.2,42,42,0,0,1,3-2.95c1.05-.94,2.11-1.83,3.28-2.7l-.19,1.86a1.14,1.14,0,0,1-.31-.55l0-.14a.82.82,0,0,1,0-.16v-.19l0-.23,0-.38.11-.66c.07-.44.15-.85.24-1.26.17-.83.36-1.64.56-2.45.38-1.62.8-3.22,1.22-4.82l2.67-9.5a66.93,66.93,0,0,0,1.94-9.41c.34-3.1.4-6.3-.57-8.85a6.42,6.42,0,0,0-2.27-3,6.87,6.87,0,0,0-1.72-.91,11.22,11.22,0,0,0-1.92-.51,4,4,0,0,0-3.17.95,12,12,0,0,0-2.66,3.25,35.36,35.36,0,0,0-2,4.19c-.6,1.47-1.14,3-1.67,4.53-1,3.08-1.95,6.24-3.05,9.38a.51.51,0,0,1-.64.31A.52.52,0,0,1,311.66,358.39Z"/><path d="M319.55,356.2a7.79,7.79,0,0,1,1.57,3.1,17.3,17.3,0,0,1,.5,3.33,32.88,32.88,0,0,1-.31,6.59c-.29,2.09-.57,4.54-2.24,6.79a7.39,7.39,0,0,1-.76.84,5.29,5.29,0,0,1-1,.71l-.62.29c-.23.07-.47.11-.7.16a3.88,3.88,0,0,1-1.4,0,5.18,5.18,0,0,1-2.2-.9l-.45-.3-.36-.33c-.24-.21-.47-.44-.71-.67h0l2.82-.2-7.1,7.18a.5.5,0,0,1-.71,0,.49.49,0,0,1-.09-.6l4.91-8.82.77-1.39,2,1.19h0c.17.12.34.24.49.37l.24.2.22.12a2.13,2.13,0,0,0,.7.3c.07,0,.14,0,.18,0h.08a.33.33,0,0,1,.1-.06,2.15,2.15,0,0,0,.59-.49,8.18,8.18,0,0,0,1.22-2.18c.15-.37.3-.88.46-1.36s.28-1,.41-1.48a43.09,43.09,0,0,0,1.17-6,10.81,10.81,0,0,0-.58-5.79l0,0a.5.5,0,0,1,.23-.67A.49.49,0,0,1,319.55,356.2Z"/><path d="M162.33,183a15.06,15.06,0,0,1,7.35,3,22.17,22.17,0,0,1,5.4,6,42.07,42.07,0,0,1,5.3,14.58,92,92,0,0,1,1.53,15c.11,5,0,9.89-.26,14.84h0a.51.51,0,0,1-1,.13A133,133,0,0,1,177.49,222c-.86-4.82-1.68-9.59-2.78-14.21a72.24,72.24,0,0,0-4.33-13.21A25.77,25.77,0,0,0,162,184a.52.52,0,0,1-.13-.72A.54.54,0,0,1,162.33,183Z"/><path d="M285.87,237.91c-2.37-.66-4.56-1.46-6.74-2.23l-6.42-2.33c-4.23-1.54-8.4-3.07-12.64-4.43a96.23,96.23,0,0,0-26.38-4.2,110.6,110.6,0,0,0-13.48.56q-3.36.36-6.71,1c-2.23.37-4.45.81-6.66,1.34a93.2,93.2,0,0,0-13,4.1,60.76,60.76,0,0,0-6.18,2.87,30.83,30.83,0,0,0-5.65,3.79l-.4.35-.38-.41c-2.76-2.94-5.65-5.75-8.62-8.36-1.51-1.29-3-2.54-4.59-3.71-.78-.58-1.58-1.13-2.39-1.66s-1.61-1.06-2.43-1.53a25.08,25.08,0,0,0-10.29-3.58,31.33,31.33,0,0,0-5.21.1c-.89.09-1.8.21-2.75.36s-1.93.37-3,.51h0a.56.56,0,0,1-.61-.48.59.59,0,0,1,.08-.35,11.06,11.06,0,0,1,5.17-4.29,14,14,0,0,1,6.82-1,26.88,26.88,0,0,1,12.33,4.72,37.87,37.87,0,0,1,5,3.94,48.9,48.9,0,0,1,4.37,4.51,52.78,52.78,0,0,1,7,10.22l-.79-.06a27.65,27.65,0,0,1,5.16-5,52.28,52.28,0,0,1,6-3.94,75.91,75.91,0,0,1,13.05-5.84c2.26-.78,4.54-1.49,6.86-2.09s4.66-1.1,7-1.52a91.49,91.49,0,0,1,14.32-1.48,90,90,0,0,1,28.63,3.85,61.28,61.28,0,0,1,6.84,2.47,51.79,51.79,0,0,1,6.44,3.36,40.12,40.12,0,0,1,10.86,9.6.53.53,0,0,1-.11.74.49.49,0,0,1-.45.08Z"/><path d="M291,214q-7.33-1.8-14.61-3.13c-2.43-.41-4.85-.81-7.28-1.08s-4.83-.54-7.25-.65a97,97,0,0,0-14.29.39c-4.68.45-9.3,1-13.9,1.8a87.54,87.54,0,0,0-26.56,10.13c-4.23,2.4-8.41,5-12.59,7.78s-8.4,5.6-13.07,7.73h0l-.42.35-.31-.62c-2.1-4.25-4.13-8.47-6.43-12.46q-1.74-3-3.68-5.76a48.54,48.54,0,0,0-4.23-5.17,29.18,29.18,0,0,0-10.4-7.32c-1.95-.78-4-1.21-6.05-1.81A52.56,52.56,0,0,1,143.2,202h0a.55.55,0,0,1-.3-.73.54.54,0,0,1,.21-.26c4.52-2.91,10.24-2.51,15-.43a31,31,0,0,1,12.17,9.24,42.07,42.07,0,0,1,4.19,6.16,51,51,0,0,1,3.16,6.59,72.5,72.5,0,0,1,4,13.78l-.74-.27h0c3.83-3.17,7.3-6.73,11-10.2a137.62,137.62,0,0,1,11.57-10,80.43,80.43,0,0,1,28-14.07,55.22,55.22,0,0,1,15.79-2.08,67.14,67.14,0,0,1,7.91.67c2.6.34,5.18.83,7.72,1.4A98.32,98.32,0,0,1,291.34,213a.51.51,0,0,1,.18.69A.49.49,0,0,1,291,214Z"/><path d="M220,161.37c-1.91,3.21-4,6.1-5.88,9.06s-3.89,5.82-5.77,8.76a178.31,178.31,0,0,0-10.66,18c-3.23,6.23-6.09,12.68-8.75,19.25s-5.1,13.29-7.28,20.13l-1-.29h0a71.59,71.59,0,0,1,5.77-11.88c1.14-1.9,2.33-3.76,3.59-5.58s2.61-3.58,4-5.31a86.13,86.13,0,0,1,9.18-9.74,79.54,79.54,0,0,1,10.68-8.25A73.63,73.63,0,0,1,239,185.24c8.92-1.76,18.34-1.3,26.69,2.26a.53.53,0,0,1,.28.69.52.52,0,0,1-.39.3h0c-4.44.77-8.66,1.25-12.82,1.89s-8.21,1.3-12.23,2.18a76.76,76.76,0,0,0-23,8.88,94.08,94.08,0,0,0-10.36,7,110,110,0,0,0-9.46,8.38,123.29,123.29,0,0,0-16.13,19.88h0l-1.08,3.62.13-3.91c.06-1.83.2-3.64.42-5.45s.45-3.62.77-5.41c.6-3.59,1.35-7.16,2.28-10.69a128.17,128.17,0,0,1,7.34-20.68,108.21,108.21,0,0,1,5-9.82c.9-1.61,1.89-3.17,2.86-4.74s2-3.08,3.21-4.53c4.52-5.85,10-11.09,16.74-14.47a.51.51,0,0,1,.69.23.53.53,0,0,1,0,.49Z"/><path d="M141.65,315.75a5.73,5.73,0,0,1-2.53,4.77,56.61,56.61,0,0,0-6.68-.18,5.44,5.44,0,0,1-1.38-1.49c.19-2.1,1.65-5.61,8.94-7.13A5.69,5.69,0,0,1,141.65,315.75Z"/><path d="M141.65,315.75a5.73,5.73,0,0,1-2.53,4.77,56.61,56.61,0,0,0-6.68-.18,5.44,5.44,0,0,1-1.38-1.49c.19-2.1,1.65-5.61,8.94-7.13A5.69,5.69,0,0,1,141.65,315.75Z"/><path d="M210.65,324.75a5.73,5.73,0,0,1-2.53,4.77,56.61,56.61,0,0,0-6.68-.18c-.55-.41-5.43,1.24-5.79.66-1-1,6.06-7.76,13.35-9.28A5.69,5.69,0,0,1,210.65,324.75Z"/><path d="M260.65,214c3.76.85,7.53,1.61,11.31,2.36s7.58,1.5,11.33,2.56a61.42,61.42,0,0,1,11,4,36.81,36.81,0,0,1,9.66,6.63l-.58.82c-3.47-1.7-6.81-3.43-10.25-5s-6.94-3-10.51-4.32-7.23-2.52-10.92-3.63S264.3,215.26,260.65,214Z"/><path d="M249.57,194.74a82.39,82.39,0,0,1,18.37.23A127.44,127.44,0,0,1,286,198.53c5.92,1.6,11.74,3.51,17.46,5.66,2.86,1.09,5.73,2.13,8.52,3.37a37.1,37.1,0,0,1,7.92,4.74l-.39.92a42.19,42.19,0,0,1-8.91-2.27c-1.42-.5-2.82-1.08-4.22-1.65l-4.22-1.64c-5.65-2.13-11.33-4.16-17.09-5.89-11.5-3.51-23.36-5.93-35.46-6Z"/><path d="M268.4,339.5a49.22,49.22,0,0,1-1.57,13.33,55,55,0,0,1-5,12.55,62.41,62.41,0,0,1-7.8,11.11,71.44,71.44,0,0,1-9.95,9.25l.3-2.18a44,44,0,0,1,3.13,5.44c.47.92.87,1.87,1.3,2.8l1.16,2.86a55.24,55.24,0,0,1,3,11.91,56.76,56.76,0,0,1,.49,6.1l-.1,3.05c0,.51,0,1-.07,1.52l-.19,1.52a48.31,48.31,0,0,1-2.92,11.74,48.26,48.26,0,0,0,2.15-11.81l.09-1.49c0-.5,0-1,0-1.5l-.1-3a55.52,55.52,0,0,0-.86-5.9,52.92,52.92,0,0,0-3.59-11.28l-1.28-2.67c-.48-.86-.91-1.75-1.42-2.59a43.15,43.15,0,0,0-3.2-4.84l-.94-1.23,1.24-.95a92.57,92.57,0,0,0,9.88-8.56,59.53,59.53,0,0,0,8.07-10.29,53.23,53.23,0,0,0,5.5-11.91,48.87,48.87,0,0,0,2.23-13h0a.25.25,0,0,1,.26-.24A.25.25,0,0,1,268.4,339.5Z"/><path d="M200.23,198.73l1.31-2.35a25.7,25.7,0,0,1,1.39-2.31l1.46-2.27c.51-.74,1.07-1.45,1.6-2.18l.81-1.09.86-1.05c.58-.69,1.14-1.41,1.75-2.08,1.25-1.33,2.48-2.67,3.84-3.9a55.66,55.66,0,0,1,8.73-6.72A54.55,54.55,0,0,1,232,170a56,56,0,0,1,21.86-3.26,50.29,50.29,0,0,1,21,5.83.51.51,0,0,1,.21.69.53.53,0,0,1-.49.27c-7.2-.48-14-1.22-20.83-1.2a75.75,75.75,0,0,0-10.12.59,59.26,59.26,0,0,0-9.84,2.19,58,58,0,0,0-17.88,9.49,91.37,91.37,0,0,0-14.77,14.72v0a.52.52,0,0,1-.71.07A.51.51,0,0,1,200.23,198.73Z"/><path d="M231,182a44.74,44.74,0,0,1,11.38-3.93c2-.41,4-.75,6-1,1-.13,2-.19,3-.25s2-.13,3-.13a99.11,99.11,0,0,1,23.91,2.71A116.61,116.61,0,0,1,301,187.23,79.87,79.87,0,0,1,311.59,193a45,45,0,0,1,4.84,3.67,22.19,22.19,0,0,1,4.1,4.54.51.51,0,0,1-.75.66v0a58.32,58.32,0,0,0-9.72-6.29c-3.42-1.82-6.92-3.53-10.5-5.06s-7.25-2.88-10.94-4.12-7.45-2.3-11.23-3.23a108.42,108.42,0,0,0-23-3.29c-1-.05-1.94-.05-2.91,0s-1.94,0-2.91.07c-1.94,0-3.87.23-5.8.46A56.72,56.72,0,0,0,231.35,183a.5.5,0,0,1-.64-.3A.51.51,0,0,1,231,182Z"/><path d="M184,207.49a69.73,69.73,0,0,1,.23-12.59c.12-1,.2-2.1.37-3.15l.57-3.13c.17-1.05.47-2.07.7-3.11l.39-1.56.49-1.53a44.82,44.82,0,0,1,5.52-11.75,18.46,18.46,0,0,1,4.47-4.91c.47-.32.93-.64,1.41-.93s1-.52,1.54-.74a12,12,0,0,1,1.64-.51,9.27,9.27,0,0,1,1.74-.19l.11.22-7,9.7a53.32,53.32,0,0,0-5.42,10.52l-.56,1.4-.49,1.43c-.32,1-.71,1.89-1,2.87-.58,1.94-1.17,3.89-1.66,5.88s-1,4-1.45,6-.83,4.06-1.33,6.1Z"/><path d="M337.15,287.5c.05-5.57.17-11.15.27-16.71s.11-11.14-.06-16.69a93.64,93.64,0,0,0-1.82-16.49,40.1,40.1,0,0,0-6.39-15.11c.49.49,1,1,1.44,1.53.24.26.49.51.72.78l.6.87c.39.58.8,1.16,1.18,1.76l1,1.89.47,1c.14.32.25.66.38,1,.25.66.49,1.32.72,2,.42,1.35.77,2.72,1.09,4.09a95.84,95.84,0,0,1,1.7,16.71c.16,5.59-.07,11.17-.3,16.74S337.51,281.94,337.15,287.5Z"/><path d="M326.65,305.52a162.13,162.13,0,0,1,.05-18.18l.37-9c.11-3,.22-6,.22-9a79.34,79.34,0,0,0-1.61-17.74,35.23,35.23,0,0,0-1.22-4.22c-.24-.69-.54-1.35-.8-2s-.63-1.31-1-1.94a19.78,19.78,0,0,0-5.79-6.43h0a.49.49,0,0,1-.12-.69.5.5,0,0,1,.64-.16,18.28,18.28,0,0,1,6.8,6.36,28.23,28.23,0,0,1,3.58,8.61c1.48,6,1.64,12.19,1.61,18.26s-.52,12.12-.94,18.14-.88,12-.81,18a.5.5,0,0,1-.49.51A.51.51,0,0,1,326.65,305.52Z"/><path d="M316.68,314.65c-2.09-5.58-2.66-11.57-3-17.44s-.26-11.76-.28-17.54a91.66,91.66,0,0,0-1.2-16.95,26.77,26.77,0,0,0-2.66-7.72,22.13,22.13,0,0,0-5.42-6.5,15.84,15.84,0,0,1,7.49,5.07,22.15,22.15,0,0,1,4.17,8.29,43.27,43.27,0,0,1,1.36,9,88.1,88.1,0,0,1,0,8.9c-.25,5.88-.9,11.66-1.06,17.45a61.75,61.75,0,0,0,1.5,17.16.5.5,0,0,1-.36.61A.49.49,0,0,1,316.68,314.65Z"/><path d="M149.15,253.5a13.39,13.39,0,0,1,6.46-5,26.21,26.21,0,0,1,8.14-1.73,35,35,0,0,1,8.25.53,36.55,36.55,0,0,1,4,1,29.9,29.9,0,0,1,4,1.41l-1.5,0c1.51-.54,2.95-.94,4.45-1.33s3-.72,4.48-1a59.5,59.5,0,0,1,9.14-1,44.35,44.35,0,0,1,4.61.06,32.46,32.46,0,0,1,4.6.56,19.63,19.63,0,0,1,8.4,3.64,34.67,34.67,0,0,0-8.68-1.5,48.62,48.62,0,0,0-8.69.35,78.23,78.23,0,0,0-8.59,1.6c-2.82.71-5.69,1.51-8.35,2.44l-.73.25-.77-.3c-1.06-.42-2.3-.85-3.48-1.21s-2.42-.67-3.64-.95a39.72,39.72,0,0,0-7.41-1,26.14,26.14,0,0,0-7.38.76A60.39,60.39,0,0,0,149.15,253.5Z"/><path d="M196.09,257a24.34,24.34,0,0,1,12.31-.33c1,.21,2,.5,3,.78s1.95.66,2.93,1a54,54,0,0,1,5.63,2.43,70,70,0,0,1,10.4,6.33,67.6,67.6,0,0,1,9.12,7.94.5.5,0,0,1,0,.71.51.51,0,0,1-.65,0h0a114.68,114.68,0,0,0-20.21-12.15c-1.78-.79-3.58-1.53-5.4-2.18-.92-.29-1.83-.64-2.76-.89l-2.78-.76A63.32,63.32,0,0,0,196.21,258a.51.51,0,0,1-.12-1Z"/><path d="M199.15,346.5c2,.46,4,1,6,1.59s3.9,1,5.84,1.45a75.84,75.84,0,0,0,11.85,1.58,113.56,113.56,0,0,0,12.1,0c4.07-.1,8.13-.46,12.25-.63a89.73,89.73,0,0,1-12.07,2.61c-2,.31-4.1.5-6.16.68s-4.15.2-6.23.13a46.72,46.72,0,0,1-12.41-1.8A39.52,39.52,0,0,1,199.15,346.5Z"/><path d="M160.15,329.5a19.57,19.57,0,0,1-5.51,4.36,22.85,22.85,0,0,1-6.77,2.29,20.69,20.69,0,0,1-7.15,0,17.74,17.74,0,0,1-3.43-1,14.76,14.76,0,0,1-3.14-1.66c1.21,0,2.34.11,3.48.15s2.24.1,3.34.16a43.21,43.21,0,0,0,6.54-.2,32,32,0,0,0,6.41-1.43A42.54,42.54,0,0,0,160.15,329.5Z"/><path d="M180.65,197c-1.22-3.82-2-7.69-3.09-11.32a35.75,35.75,0,0,0-2-5.17c-.74-1.66-1.51-3.22-2.27-5.16h0a.54.54,0,0,1,.31-.7.53.53,0,0,1,.41,0,9.4,9.4,0,0,1,4.49,4.42,22.27,22.27,0,0,1,1.87,5.94,38.35,38.35,0,0,1,.54,6A46,46,0,0,1,180.65,197Z"/></g></g></svg>