<svg width="16" height="16" viewBox="0 0 16 16" fill="none" xmlns="http://www.w3.org/2000/svg">
<mask id="path-1-inside-1" fill="white">
<path d="M0 8C0 3.58172 3.58172 0 8 0C12.4183 0 16 3.58172 16 8C16 12.4183 12.4183 16 8 16C3.58172 16 0 12.4183 0 8Z"/>
</mask>
<path d="M6.21045 11.4964L8.70682 9.00007L7.29261 7.58586L4.79624 10.0822L6.21045 11.4964ZM8.70682 9.00007L11.3533 6.35359L9.93909 4.93938L7.29261 7.58586L8.70682 9.00007ZM4.64641 6.35387L7.29261 9.00007L8.70682 7.58586L6.06062 4.93966L4.64641 6.35387ZM7.29261 9.00007L9.78927 11.4967L11.2035 10.0825L8.70682 7.58586L7.29261 9.00007ZM8 14C4.68629 14 2 11.3137 2 8H-2C-2 13.5228 2.47715 18 8 18V14ZM14 8C14 11.3137 11.3137 14 8 14V18C13.5228 18 18 13.5228 18 8H14ZM8 2C11.3137 2 14 4.68629 14 8H18C18 2.47715 13.5228 -2 8 -2V2ZM8 -2C2.47715 -2 -2 2.47715 -2 8H2C2 4.68629 4.68629 2 8 2V-2Z" fill="white" mask="url(#path-1-inside-1)"/>
</svg>
